<svg width="1280" height="720" xmlns="http://www.w3.org/2000/svg" xmlns:xlink="http://www.w3.org/1999/xlink" overflow="hidden"><defs><clipPath id="clip0"><rect x="836" y="247" width="46" height="46"></rect></clipPath><clipPath id="clip1"><rect x="836" y="247" width="46" height="46"></rect></clipPath><clipPath id="clip2"><rect x="836" y="247" width="46" height="46"></rect></clipPath><clipPath id="clip3"><rect x="266" y="385" width="46" height="46"></rect></clipPath><clipPath id="clip4"><rect x="266" y="385" width="46" height="46"></rect></clipPath><clipPath id="clip5"><rect x="266" y="385" width="46" height="46"></rect></clipPath><clipPath id="clip6"><rect x="987" y="251" width="46" height="46"></rect></clipPath><clipPath id="clip7"><rect x="987" y="251" width="46" height="46"></rect></clipPath><clipPath id="clip8"><rect x="987" y="251" width="46" height="46"></rect></clipPath><clipPath id="clip9"><rect x="1124" y="250" width="45" height="46"></rect></clipPath><clipPath id="clip10"><rect x="1124" y="250" width="45" height="46"></rect></clipPath><clipPath id="clip11"><rect x="1124" y="250" width="45" height="46"></rect></clipPath><clipPath id="clip12"><rect x="700" y="246" width="43" height="43"></rect></clipPath><clipPath id="clip13"><rect x="700" y="246" width="43" height="43"></rect></clipPath><clipPath id="clip14"><rect x="700" y="246" width="43" height="43"></rect></clipPath><clipPath id="clip15"><rect x="557" y="386" width="44" height="43"></rect></clipPath><clipPath id="clip16"><rect x="557" y="386" width="44" height="43"></rect></clipPath><clipPath id="clip17"><rect x="557" y="386" width="44" height="43"></rect></clipPath><clipPath id="clip18"><rect x="407" y="518" width="44" height="43"></rect></clipPath><clipPath id="clip19"><rect x="407" y="518" width="44" height="43"></rect></clipPath><clipPath id="clip20"><rect x="407" y="518" width="44" height="43"></rect></clipPath><clipPath id="clip21"><rect x="986" y="515" width="41" height="40"></rect></clipPath><clipPath id="clip22"><rect x="986" y="515" width="41" height="40"></rect></clipPath><clipPath id="clip23"><rect x="986" y="515" width="41" height="40"></rect></clipPath><clipPath id="clip24"><rect x="705" y="385" width="43" height="44"></rect></clipPath><clipPath id="clip25"><rect x="705" y="385" width="43" height="44"></rect></clipPath><clipPath id="clip26"><rect x="705" y="385" width="43" height="44"></rect></clipPath></defs><g><rect x="0" y="0" width="1280" height="720" fill="#FFFFFF"></rect><rect x="82" y="208" width="126" height="121" fill="#E9E9E9"></rect><rect x="82" y="481" width="126" height="121" fill="#E9E9E9"></rect><rect x="82" y="344" width="126" height="122" fill="#E9E9E9"></rect><rect x="225" y="208" width="126" height="121" fill="#E9E9E9"></rect><rect x="225" y="481" width="126" height="121" fill="#E9E9E9"></rect><rect x="225" y="344" width="126" height="122" fill="#E9E9E9"></rect><rect x="369" y="208" width="125" height="121" fill="#E9E9E9"></rect><rect x="369" y="481" width="125" height="121" fill="#E9E9E9"></rect><rect x="369" y="344" width="125" height="122" fill="#E9E9E9"></rect><rect x="512" y="208" width="126" height="121" fill="#E9E9E9"></rect><rect x="512" y="481" width="126" height="121" fill="#E9E9E9"></rect><rect x="512" y="344" width="126" height="122" fill="#E9E9E9"></rect><rect x="655" y="208" width="126" height="121" fill="#E9E9E9"></rect><rect x="655" y="481" width="126" height="121" fill="#E9E9E9"></rect><rect x="655" y="344" width="126" height="122" fill="#E9E9E9"></rect><rect x="799" y="208" width="125" height="121" fill="#E9E9E9"></rect><rect x="799" y="481" width="125" height="121" fill="#E9E9E9"></rect><rect x="799" y="344" width="125" height="122" fill="#E9E9E9"></rect><rect x="942" y="208" width="126" height="121" fill="#E9E9E9"></rect><rect x="942" y="481" width="126" height="121" fill="#E9E9E9"></rect><rect x="942" y="344" width="126" height="122" fill="#E9E9E9"></rect><rect x="1085" y="208" width="126" height="121" fill="#E9E9E9"></rect><rect x="1085" y="481" width="126" height="121" fill="#E9E9E9"></rect><rect x="1085" y="344" width="126" height="122" fill="#E9E9E9"></rect><text fill="#BFBFBF" font-family="Calibri,Calibri_MSFontService,sans-serif" font-weight="700" font-size="13.3333" transform="translate(47.244 54)">SURF</text><text font-family="Calibri,Calibri_MSFontService,sans-serif" font-weight="700" font-size="45.3333" transform="translate(90.8308 113)">Data / transfer</text><path d="M145 290C132.458 290 123 285.956 123 280.593L123 256.407C123 251.044 132.458 247 145 247 157.542 247 167 251.044 167 256.407L167 280.593C167 285.956 157.542 290 145 290ZM125.75 280.593C125.75 283.34 132.605 287.312 145 287.312 157.395 287.312 164.25 283.34 164.25 280.593L164.25 273.181C160.486 276.087 153.208 277.906 145 277.906 136.792 277.906 129.516 276.085 125.75 273.181L125.75 280.593ZM125.75 268.499C125.75 271.246 132.605 275.218 145 275.218 157.395 275.218 164.25 271.246 164.25 268.499L164.25 261.087C160.484 263.993 153.208 265.812 145 265.812 136.792 265.812 129.516 263.993 125.75 261.087L125.75 268.499ZM145 249.688C132.605 249.688 125.75 253.66 125.75 256.407 125.75 259.153 132.605 263.126 145 263.126 157.395 263.126 164.25 259.153 164.25 256.407 164.25 253.66 157.395 249.688 145 249.688Z" fill-rule="evenodd"></path><path d="M284.334 286.998C273.962 286.15 267 282.453 267 277.794L267 256.372C267 251.029 276.243 247 288.5 247 300.757 247 310 251.029 310 256.372L310 265.798C310 266.537 309.398 267.136 308.656 267.136 307.914 267.136 307.312 266.537 307.312 265.798L307.312 261.062C306.082 262.029 304.453 262.879 302.448 263.6 302.301 263.654 302.149 263.68 301.993 263.68 301.429 263.68 300.922 263.325 300.728 262.797 300.606 262.461 300.622 262.097 300.776 261.772 300.929 261.449 301.199 261.203 301.536 261.081 305.154 259.78 307.312 258.02 307.312 256.372 307.312 253.635 300.613 249.678 288.5 249.678 276.387 249.678 269.688 253.635 269.688 256.372 269.688 259.109 276.387 263.066 288.5 263.066 289.242 263.066 289.844 263.666 289.844 264.405 289.844 265.144 289.242 265.744 288.5 265.744 280.479 265.744 273.368 263.93 269.688 261.037L269.688 267.083C269.688 269.346 273.945 272.224 282.079 273.347 282.433 273.395 282.749 273.579 282.966 273.865 283.182 274.15 283.274 274.502 283.225 274.855 283.134 275.514 282.562 276.01 281.896 276.01 281.835 276.01 281.772 276.007 281.71 275.998 276.421 275.268 272.235 273.786 269.688 271.771L269.688 277.792C269.688 280.407 275.245 283.567 284.546 284.326 284.904 284.354 285.228 284.52 285.461 284.793 285.694 285.066 285.805 285.413 285.777 285.768 285.719 286.457 285.132 286.998 284.438 286.998 284.404 287.002 284.37 287 284.334 286.998Z" fill-rule="evenodd"></path><path d="M298 290C291.383 290 286 284.617 286 278 286 271.383 291.383 266 298 266 304.617 266 310 271.383 310 278 310 284.617 304.617 290 298 290ZM298 268.667C292.853 268.667 288.667 272.853 288.667 278 288.667 283.147 292.853 287.333 298 287.333 303.147 287.333 307.333 283.147 307.333 278 307.333 272.853 303.147 268.667 298 268.667Z" fill-rule="evenodd"></path><path d="M298 285C297.227 285 296.6 284.373 296.6 283.6L296.6 279.4 292.4 279.4C291.627 279.4 291 278.773 291 278 291 277.227 291.627 276.6 292.4 276.6L296.6 276.6 296.6 272.4C296.6 271.627 297.227 271 298 271 298.773 271 299.4 271.627 299.4 272.4L299.4 276.6 303.6 276.6C304.373 276.6 305 277.227 305 278 305 278.773 304.373 279.4 303.6 279.4L299.4 279.4 299.4 283.6C299.4 284.373 298.773 285 298 285Z" fill-rule="evenodd"></path><path d="M426.098 287C426.05 287 426.001 286.998 425.953 286.993 416.26 285.917 410 282.346 410 277.892L410 256.402C410 251.042 419.243 247 431.5 247 443.757 247 453 251.042 453 256.402L453 265.716C453 266.457 452.398 267.059 451.656 267.059 450.914 267.059 450.312 266.457 450.312 265.716L450.312 261.092C449.386 261.826 448.236 262.494 446.876 263.085 446.708 263.159 446.527 263.196 446.34 263.196 445.805 263.196 445.321 262.879 445.108 262.389 444.964 262.061 444.959 261.696 445.09 261.361 445.221 261.028 445.475 260.764 445.803 260.621 448.67 259.376 450.312 257.838 450.312 256.402 450.312 253.657 443.613 249.686 431.5 249.686 419.387 249.686 412.688 253.657 412.688 256.402 412.688 259.147 419.387 263.118 431.5 263.118 432.242 263.118 432.844 263.719 432.844 264.461 432.844 265.202 432.242 265.804 431.5 265.804 423.479 265.804 416.368 263.984 412.688 261.081L412.688 267.147C412.688 269.398 416.903 272.274 424.959 273.415 425.313 273.465 425.629 273.651 425.844 273.938 426.059 274.224 426.15 274.579 426.1 274.933 426.007 275.592 425.435 276.089 424.77 276.089 424.71 276.089 424.647 276.085 424.584 276.076 419.356 275.335 415.214 273.854 412.686 271.846L412.686 277.892C412.686 280.281 417.437 283.345 426.245 284.321 426.981 284.403 427.514 285.068 427.433 285.804 427.358 286.486 426.784 287 426.098 287Z" fill-rule="evenodd"></path><path d="M441 290C434.383 290 429 284.617 429 278 429 271.383 434.383 266 441 266 447.617 266 453 271.383 453 278 453 284.617 447.617 290 441 290ZM441 268.667C435.853 268.667 431.667 272.853 431.667 278 431.667 283.147 435.853 287.333 441 287.333 446.147 287.333 450.333 283.147 450.333 278 450.333 272.853 446.147 268.667 441 268.667Z" fill-rule="evenodd"></path><path d="M439.74 284C439.184 284 438.652 283.798 438.205 283.415 438.113 283.337 438.021 283.246 437.934 283.147L435.375 280.239C435.133 279.964 435 279.599 435 279.211 435 278.824 435.133 278.457 435.375 278.184 435.617 277.911 435.938 277.758 436.279 277.758 436.62 277.758 436.943 277.909 437.183 278.184L439.742 281.092 444.698 273.582C444.939 273.217 445.321 273 445.722 273 446 273 446.264 273.101 446.488 273.289 447.052 273.772 447.168 274.685 446.745 275.326L441.79 282.837C441.378 283.459 440.779 283.861 440.102 283.971 439.982 283.99 439.861 284 439.74 284Z" fill-rule="evenodd"></path><path d="M569.478 287C569.429 287 569.379 286.998 569.329 286.993 559.408 285.918 553 282.347 553 277.892L553 256.402C553 251.042 562.458 247 575 247 587.542 247 597 251.042 597 256.402L597 264.461C597 265.202 596.384 265.804 595.625 265.804 594.866 265.804 594.25 265.202 594.25 264.461L594.25 261.106C592.99 262.077 591.324 262.93 589.272 263.653 589.122 263.707 588.966 263.734 588.807 263.734 588.229 263.734 587.711 263.377 587.513 262.847 587.256 262.15 587.626 261.379 588.339 261.128 592.041 259.821 594.25 258.055 594.25 256.402 594.25 253.657 587.395 249.686 575 249.686 562.605 249.686 555.75 253.657 555.75 256.402 555.75 259.147 562.605 263.118 575 263.118 575.759 263.118 576.375 263.719 576.375 264.461 576.375 265.202 575.759 265.804 575 265.804 566.792 265.804 559.516 263.984 555.75 261.081L555.75 267.147C555.75 269.4 560.068 272.276 568.318 273.415 569.067 273.519 569.592 274.199 569.487 274.933 569.392 275.592 568.807 276.089 568.127 276.089 568.065 276.089 568 276.085 567.936 276.076 562.581 275.336 558.339 273.855 555.75 271.846L555.75 277.892C555.75 280.281 560.614 283.347 569.628 284.321 570.382 284.403 570.926 285.068 570.844 285.804 570.765 286.486 570.178 287 569.478 287Z" fill-rule="evenodd"></path><path d="M584.5 290C577.607 290 572 284.617 572 278 572 271.383 577.607 266 584.5 266 591.393 266 597 271.383 597 278 597 284.617 591.393 290 584.5 290ZM584.5 268.667C579.139 268.667 574.778 272.853 574.778 278 574.778 283.147 579.139 287.333 584.5 287.333 589.861 287.333 594.222 283.147 594.222 278 594.222 272.853 589.861 268.667 584.5 268.667Z" fill-rule="evenodd"></path><path d="M584.501 285C584.341 285 584.182 284.97 584.028 284.914 584.017 284.91 584.008 284.907 583.997 284.903 583.806 284.825 583.656 284.722 583.527 284.591L579.402 280.391C578.866 279.845 578.866 278.957 579.402 278.41 579.662 278.145 580.007 277.999 580.373 277.999 580.74 277.999 581.087 278.145 581.345 278.41L583.124 280.221 583.124 272.4C583.124 271.627 583.74 271 584.499 271 585.258 271 585.876 271.625 585.876 272.398L585.876 280.219 587.655 278.408C587.915 278.143 588.26 277.997 588.627 277.997 588.993 277.997 589.34 278.143 589.599 278.408 590.134 278.953 590.134 279.842 589.599 280.389L585.473 284.589C585.344 284.72 585.194 284.823 585.024 284.894 585.009 284.899 584.992 284.907 584.976 284.912 584.827 284.97 584.664 285 584.501 285Z" fill-rule="evenodd"></path><path d="M876.938 427C872.417 427 868.875 424.584 868.875 421.5L868.875 420.697 864.107 415.816C861.902 417.664 858.225 418.751 854.094 418.751 847.199 418.751 842 415.796 842 411.876L842 395.375C842 391.456 847.199 388.5 854.094 388.5 860.988 388.5 866.188 391.456 866.188 395.375L866.188 397.555 868.875 394.805C868.875 394.805 868.875 388.48 868.875 388.471 868.898 385.4 872.433 383 876.938 383 881.442 383 884.979 385.402 885 388.473 885 388.48 885 396.749 885 396.749 885 399.833 881.458 402.249 876.938 402.249 873.245 402.249 870.194 400.641 869.214 398.348L866.188 401.444 866.188 411.874C866.188 412.485 866.057 413.083 865.801 413.658L868.875 416.806C868.875 416.806 868.875 413.224 868.875 413.211 868.907 410.145 872.44 407.751 876.938 407.751 881.435 407.751 884.968 410.147 885 413.211 885 413.224 885 421.5 885 421.5 885 424.584 881.458 427 876.938 427ZM871.562 421.5C871.562 422.798 873.861 424.25 876.938 424.25 880.014 424.25 882.312 422.798 882.312 421.5L882.312 417.393C880.865 418.266 878.978 418.751 876.938 418.751 874.897 418.751 873.01 418.267 871.562 417.393L871.562 421.5ZM876.938 410.501C873.861 410.501 871.562 411.953 871.562 413.251 871.562 414.549 873.861 416.001 876.938 416.001 880.014 416.001 882.312 414.549 882.312 413.251 882.312 411.953 880.014 410.501 876.938 410.501ZM844.688 411.876C844.688 413.823 848.71 416.001 854.094 416.001 858.098 416.001 861.793 414.766 863.084 412.998 863.091 412.987 863.1 412.976 863.108 412.965 863.367 412.599 863.5 412.232 863.5 411.876L863.5 408.03C861.26 409.595 857.871 410.501 854.094 410.501 850.317 410.501 846.927 409.595 844.688 408.03L844.688 411.876ZM844.688 403.626C844.688 405.573 848.71 407.751 854.094 407.751 859.478 407.751 863.5 405.573 863.5 403.626L863.5 399.779C861.26 401.345 857.871 402.251 854.094 402.251 850.317 402.251 846.927 401.345 844.688 399.779L844.688 403.626ZM854.094 391.25C848.71 391.25 844.688 393.428 844.688 395.375 844.688 397.323 848.71 399.501 854.094 399.501 859.478 399.501 863.5 397.323 863.5 395.375 863.5 393.428 859.478 391.25 854.094 391.25ZM871.562 396.749C871.562 398.047 873.861 399.499 876.938 399.499 880.014 399.499 882.312 398.047 882.312 396.749L882.312 392.642C880.865 393.515 878.978 394.001 876.938 394.001 874.897 394.001 873.01 393.516 871.562 392.642L871.562 396.749ZM876.938 385.75C873.861 385.75 871.562 387.202 871.562 388.5 871.562 389.798 873.861 391.25 876.938 391.25 880.014 391.25 882.312 389.798 882.312 388.5 882.312 387.202 880.014 385.75 876.938 385.75Z" fill-rule="evenodd"></path><path d="M1132.67 428C1131.93 428 1131.33 427.384 1131.33 426.625 1131.33 425.866 1131.93 425.25 1132.67 425.25L1136.67 425.25 1136.67 422.5 1130 422.5C1127.79 422.5 1126 420.65 1126 418.375L1126 410.125C1126 407.85 1127.79 406 1130 406L1146 406C1148.21 406 1150 407.85 1150 410.125L1150 418.375C1150 420.65 1148.21 422.5 1146 422.5L1139.33 422.5 1139.33 425.25 1143.33 425.25C1144.07 425.25 1144.67 425.866 1144.67 426.625 1144.67 427.384 1144.07 428 1143.33 428L1132.67 428ZM1130 408.75C1129.26 408.75 1128.67 409.366 1128.67 410.125L1128.67 418.375C1128.67 419.134 1129.26 419.75 1130 419.75L1146 419.75C1146.74 419.75 1147.33 419.134 1147.33 418.375L1147.33 410.125C1147.33 409.366 1146.74 408.75 1146 408.75L1130 408.75Z" fill-rule="evenodd"></path><path d="M1159.5 409C1154.77 409 1150 407.711 1150 404.833L1150 388.167C1150 385.289 1154.77 384 1159.5 384 1164.23 384 1169 385.289 1169 388.167L1169 404.833C1169 407.711 1164.23 409 1159.5 409ZM1152.71 404.726C1153.05 405.111 1155.2 406.222 1159.5 406.222 1163.8 406.222 1165.95 405.111 1166.29 404.726L1166.29 399.55C1164.58 400.257 1162.14 400.667 1159.5 400.667 1156.86 400.667 1154.42 400.259 1152.71 399.55L1152.71 404.726ZM1152.71 396.393C1153.05 396.778 1155.2 397.889 1159.5 397.889 1163.8 397.889 1165.95 396.778 1166.29 396.393L1166.29 391.217C1164.58 391.924 1162.14 392.333 1159.5 392.333 1156.86 392.333 1154.42 391.926 1152.71 391.217L1152.71 396.393ZM1152.83 388.167C1153.42 388.618 1155.55 389.556 1159.5 389.556 1163.45 389.556 1165.58 388.618 1166.17 388.167 1165.58 387.715 1163.45 386.778 1159.5 386.778 1155.55 386.778 1153.42 387.715 1152.83 388.167Z" fill-rule="evenodd"></path><path d="M1132.6 402C1132.57 402 1132.54 401.998 1132.51 401.995 1132.38 401.988 1132.25 401.961 1132.12 401.915 1132.11 401.909 1132.05 401.89 1132.04 401.884 1131.92 401.835 1131.8 401.767 1131.7 401.684 1131.67 401.661 1131.64 401.634 1131.61 401.609L1127.41 397.609C1127.15 397.358 1127 397.022 1127 396.667 1127 396.311 1127.15 395.975 1127.41 395.725 1127.67 395.472 1128.03 395.333 1128.4 395.333 1128.77 395.333 1129.13 395.472 1129.39 395.725L1131.2 397.447 1131.2 396.667C1131.2 392.99 1134.34 390 1138.2 390L1143.22 390 1141.41 388.276C1141.14 388.025 1141 387.689 1141 387.333 1141 386.978 1141.14 386.642 1141.41 386.391 1141.67 386.139 1142.03 386 1142.4 386 1142.77 386 1143.13 386.139 1143.39 386.391L1147.59 390.391C1147.72 390.516 1147.82 390.661 1147.89 390.827 1147.9 390.841 1147.91 390.857 1147.91 390.873 1147.97 391.024 1148 391.179 1148 391.333 1148 391.492 1147.97 391.646 1147.91 391.797 1147.91 391.81 1147.9 391.822 1147.9 391.833 1147.82 392.005 1147.72 392.151 1147.59 392.277L1143.39 396.276C1143.13 396.528 1142.77 396.667 1142.4 396.667 1142.03 396.667 1141.67 396.528 1141.41 396.276 1141.15 396.025 1141 395.689 1141 395.333 1141 394.978 1141.15 394.642 1141.41 394.391L1143.22 392.667 1138.2 392.667C1135.88 392.667 1134 394.461 1134 396.667L1134 397.447 1135.81 395.723C1136.08 395.472 1136.43 395.333 1136.8 395.333 1137.17 395.333 1137.53 395.472 1137.79 395.725 1138.33 396.245 1138.33 397.09 1137.79 397.611 1137.79 397.611 1133.6 401.602 1133.59 401.611 1133.57 401.627 1133.55 401.643 1133.53 401.659 1133.43 401.751 1133.29 401.831 1133.15 401.89 1133.14 401.895 1133.11 401.908 1133.09 401.911 1132.96 401.957 1132.83 401.986 1132.7 401.993 1132.66 401.998 1132.63 402 1132.6 402Z" fill-rule="evenodd"></path><path d="M422.593 425C422.552 425 422.512 424.998 422.472 424.995 412.022 424.079 405 420.292 405 415.574L405 393.609C405 388.131 414.458 384 427 384 439.542 384 449 388.131 449 393.609L449 399.1C449 399.858 448.384 400.473 447.625 400.473 446.866 400.473 446.25 399.858 446.25 399.1L446.25 398.405C445.287 399.166 444.09 399.858 442.67 400.47 442.497 400.545 442.314 400.581 442.125 400.581 441.575 400.581 441.08 400.255 440.862 399.752 440.717 399.417 440.712 399.044 440.847 398.701 440.983 398.361 441.243 398.094 441.58 397.947 444.505 396.688 446.25 395.066 446.25 393.609 446.25 390.803 439.395 386.746 427 386.746 414.605 386.746 407.75 390.803 407.75 393.609 407.75 396.415 414.605 400.473 427 400.473 427.759 400.473 428.375 401.088 428.375 401.846 428.375 402.604 427.759 403.219 427 403.219 418.792 403.219 411.516 401.359 407.75 398.392L407.75 404.592C407.75 406.907 412.097 409.856 420.406 411.009 421.155 411.113 421.681 411.809 421.579 412.557 421.485 413.233 420.899 413.742 420.218 413.742 420.156 413.742 420.092 413.738 420.028 413.729 414.629 412.978 410.353 411.461 407.75 409.398L407.75 415.574C407.75 418.215 413.347 421.438 422.714 422.26 423.078 422.291 423.41 422.465 423.647 422.745 423.883 423.025 423.995 423.382 423.962 423.748 423.9 424.462 423.311 425 422.593 425Z" fill-rule="evenodd"></path><path d="M436.483 428C434.27 428 432.08 427.398 430.152 426.262 427.277 424.566 425.234 421.851 424.401 418.619 423.568 415.386 424.042 412.022 425.738 409.149 427.434 406.273 430.149 404.231 433.382 403.396 434.404 403.133 435.453 403 436.5 403 440.323 403 443.875 404.733 446.223 407.642L446.223 404.392C446.223 403.626 446.845 403.004 447.611 403.004 448.378 403.004 449 403.626 449 404.392L449 412.724C449 413.49 448.378 414.112 447.611 414.112L440.668 414.112C439.901 414.112 439.279 413.49 439.279 412.724 439.279 411.957 439.901 411.335 440.668 411.335L445.286 411.335C443.693 407.973 440.279 405.777 436.502 405.777 435.687 405.777 434.872 405.881 434.076 406.086 431.561 406.734 429.449 408.323 428.13 410.559 426.81 412.796 426.442 415.412 427.09 417.926 427.738 420.441 429.327 422.553 431.563 423.871 433.063 424.756 434.765 425.225 436.485 425.225 437.303 425.225 438.127 425.119 438.931 424.912 440.958 424.39 442.793 423.199 444.101 421.565 444.365 421.233 444.762 421.042 445.186 421.042 445.499 421.042 445.806 421.15 446.052 421.346 446.341 421.577 446.524 421.907 446.567 422.275 446.608 422.644 446.504 423.007 446.273 423.297 444.593 425.401 442.234 426.93 439.627 427.6 438.592 427.865 437.537 428 436.483 428Z" fill-rule="evenodd"></path><path d="M1014 407C1007.63 407 1003 404.686 1003 401.5L1003 390.499C1003 390.423 1003.01 390.348 1003.02 390.275 1003.23 387.215 1007.84 385 1014 385 1020.16 385 1024.77 387.215 1024.98 390.275 1024.99 390.348 1025 390.423 1025 390.499L1025 401.5C1025 404.686 1020.37 407 1014 407ZM1005.75 401.5C1005.75 402.433 1008.66 404.25 1014 404.25 1019.34 404.25 1022.25 402.433 1022.25 401.5L1022.25 399.745C1020.24 400.856 1017.27 401.5 1014 401.5 1010.73 401.5 1007.76 400.856 1005.75 399.745L1005.75 401.5ZM1005.75 395.999C1005.75 396.932 1008.66 398.749 1014 398.749 1019.34 398.749 1022.25 396.932 1022.25 395.999L1022.25 394.246C1020.24 395.357 1017.27 396.001 1014 396.001 1010.73 396.001 1007.76 395.357 1005.75 394.246L1005.75 395.999ZM1014 387.75C1008.66 387.75 1005.75 389.567 1005.75 390.5 1005.75 391.434 1008.66 393.251 1014 393.251 1019.34 393.251 1022.25 391.434 1022.25 390.5 1022.25 389.567 1019.34 387.75 1014 387.75Z" fill-rule="evenodd"></path><path d="M997.429 429C996.679 429 996.071 428.392 996.071 427.643 996.071 426.894 996.679 426.286 997.429 426.286L1000.14 426.286 1000.14 423.571 996.071 423.571C993.826 423.571 992 421.746 992 419.5L992 414.071C992 411.826 993.826 410 996.071 410L1006.93 410C1009.17 410 1011 411.826 1011 414.071L1011 419.5C1011 421.746 1009.17 423.571 1006.93 423.571L1002.86 423.571 1002.86 426.286 1005.57 426.286C1006.32 426.286 1006.93 426.894 1006.93 427.643 1006.93 428.392 1006.32 429 1005.57 429L997.429 429ZM996.071 412.714C995.322 412.714 994.714 413.322 994.714 414.071L994.714 419.5C994.714 420.249 995.322 420.857 996.071 420.857L1006.93 420.857C1007.68 420.857 1008.29 420.249 1008.29 419.5L1008.29 414.071C1008.29 413.322 1007.68 412.714 1006.93 412.714L996.071 412.714Z" fill-rule="evenodd"></path><path d="M1021.43 429C1020.68 429 1020.07 428.392 1020.07 427.643 1020.07 426.894 1020.68 426.286 1021.43 426.286L1024.14 426.286 1024.14 423.571 1020.07 423.571C1017.83 423.571 1016 421.746 1016 419.5L1016 414.071C1016 411.826 1017.83 410 1020.07 410L1030.93 410C1033.17 410 1035 411.826 1035 414.071L1035 419.5C1035 421.746 1033.17 423.571 1030.93 423.571L1026.86 423.571 1026.86 426.286 1029.57 426.286C1030.32 426.286 1030.93 426.894 1030.93 427.643 1030.93 428.392 1030.32 429 1029.57 429L1021.43 429ZM1020.07 412.714C1019.32 412.714 1018.71 413.322 1018.71 414.071L1018.71 419.5C1018.71 420.249 1019.32 420.857 1020.07 420.857L1030.93 420.857C1031.68 420.857 1032.29 420.249 1032.29 419.5L1032.29 414.071C1032.29 413.322 1031.68 412.714 1030.93 412.714L1020.07 412.714Z" fill-rule="evenodd"></path><path d="M996.25 407C995.56 407 995 406.403 995 405.667L995 403C995 400.794 996.682 399 998.75 399 999.44 399 1000 399.597 1000 400.333 1000 401.069 999.44 401.667 998.75 401.667 998.06 401.667 997.5 402.264 997.5 403L997.5 405.667C997.5 406.403 996.94 407 996.25 407Z" fill-rule="evenodd"></path><path d="M1031.5 407C1030.67 407 1030 406.403 1030 405.667L1030 403C1030 402.264 1029.33 401.667 1028.5 401.667 1027.67 401.667 1027 401.069 1027 400.333 1027 399.597 1027.67 399 1028.5 399 1030.98 399 1033 400.794 1033 403L1033 405.667C1033 406.403 1032.33 407 1031.5 407Z" fill-rule="evenodd"></path><path d="M138.141 423C138.079 423 138.015 422.996 137.951 422.987 128.727 421.713 123 418.275 123 414.018L123 392.44C123 387.058 132.458 383 145 383 157.542 383 167 387.058 167 392.44L167 399.21C167 399.955 166.384 400.559 165.625 400.559 164.866 400.559 164.25 399.955 164.25 399.21L164.25 397.166C162.998 398.133 161.344 398.986 159.311 399.71 159.159 399.764 159.003 399.791 158.842 399.791 158.266 399.791 157.745 399.433 157.549 398.903 157.291 398.203 157.661 397.428 158.372 397.175 162.054 395.864 164.25 394.095 164.25 392.44 164.25 389.684 157.395 385.697 145 385.697 132.605 385.697 125.75 389.684 125.75 392.44 125.75 395.197 132.605 399.183 145 399.183 145.759 399.183 146.375 399.788 146.375 400.532 146.375 401.277 145.759 401.881 145 401.881 136.792 401.881 129.516 400.054 125.75 397.139L125.75 403.229C125.75 405.628 130.612 408.705 139.625 409.685 140.378 409.767 140.923 410.435 140.84 411.174 140.763 411.859 140.176 412.373 139.474 412.373 139.425 412.373 139.375 412.371 139.326 412.366 133.397 411.72 128.579 410.134 125.75 407.937L125.75 414.016C125.75 416.28 130.071 419.172 138.332 420.314 139.084 420.418 139.608 421.101 139.502 421.838 139.406 422.502 138.822 423 138.141 423Z" fill-rule="evenodd"></path><path d="M154.822 427C153.53 427 152.248 426.788 151.009 426.37 148.372 425.48 146.192 423.728 144.787 421.45L144.787 424.243C144.787 425.002 144.163 425.617 143.394 425.617 142.624 425.617 142 425.002 142 424.243L142 417.374C142 416.616 142.624 416 143.394 416L150.362 416C151.131 416 151.756 416.616 151.756 417.374 151.756 418.132 151.131 418.748 150.362 418.748L146.521 418.748C147.495 421.098 149.455 422.941 151.91 423.769 152.856 424.087 153.835 424.249 154.82 424.249 156.185 424.249 157.51 423.943 158.755 423.342 160.905 422.303 162.514 420.501 163.289 418.27 163.483 417.713 164.01 417.339 164.607 417.339 164.763 417.339 164.915 417.365 165.062 417.416 165.41 417.533 165.694 417.779 165.857 418.11 166.021 418.44 166.045 418.814 165.924 419.16 164.908 422.087 162.797 424.448 159.98 425.809 158.352 426.601 156.615 427 154.822 427Z" fill-rule="evenodd"></path><path d="M158.639 413C157.869 413 157.245 412.384 157.245 411.625 157.245 410.867 157.869 410.251 158.639 410.251L162.477 410.251C161.504 407.903 159.545 406.063 157.096 405.233 156.149 404.912 155.168 404.749 154.181 404.749 152.817 404.749 151.494 405.053 150.251 405.653 148.102 406.69 146.489 408.492 145.712 410.726 145.519 411.281 144.989 411.655 144.395 411.655 144.24 411.655 144.088 411.629 143.941 411.58 143.215 411.334 142.826 410.551 143.075 409.835 144.094 406.906 146.206 404.546 149.025 403.184 150.655 402.398 152.388 402 154.177 402 155.472 402 156.758 402.213 157.998 402.632 160.631 403.523 162.806 405.275 164.211 407.551L164.211 404.751C164.211 403.992 164.835 403.376 165.605 403.376 166.374 403.376 167 403.996 167 404.753L167 411.625C167 412.384 166.376 413 165.607 413L158.639 413Z" fill-rule="evenodd"></path><path d="M292.462 541C292.113 541 291.783 540.865 291.538 540.619 291.29 540.374 291.154 540.047 291.154 539.7 291.154 539.353 291.29 539.026 291.538 538.781L294.535 535.8 283.308 535.8C282.586 535.8 282 535.218 282 534.5 282 533.782 282.586 533.2 283.308 533.2L294.535 533.2 291.536 530.219C291.288 529.974 291.152 529.647 291.152 529.3 291.152 528.953 291.288 528.626 291.536 528.381 291.783 528.137 292.111 528 292.46 528 292.809 528 293.138 528.135 293.384 528.381L298.615 533.581C298.737 533.703 298.833 533.845 298.899 534.006 298.904 534.02 298.911 534.035 298.916 534.051 298.97 534.191 299 534.344 299 534.5 299 534.651 298.972 534.802 298.918 534.947 298.915 534.958 298.911 534.966 298.908 534.975 298.834 535.155 298.737 535.297 298.615 535.42L293.386 540.619C293.14 540.865 292.81 541 292.462 541Z" fill-rule="evenodd"></path><path d="M284.538 555C284.19 555 283.86 554.854 283.614 554.589L278.384 548.989C278.262 548.859 278.166 548.704 278.099 548.532 278.094 548.519 278.089 548.502 278.084 548.487 278.03 548.336 278 548.17 278 548 278 547.834 278.028 547.671 278.084 547.513 278.091 547.492 278.098 547.472 278.105 547.453 278.166 547.294 278.262 547.141 278.384 547.009L283.614 541.409C283.86 541.146 284.19 541 284.538 541 284.887 541 285.217 541.146 285.463 541.411 285.972 541.956 285.972 542.844 285.463 543.391L282.465 546.6 293.692 546.6C294.414 546.6 295 547.227 295 548 295 548.773 294.414 549.4 293.692 549.4L282.465 549.4 285.464 552.611C285.974 553.156 285.974 554.044 285.464 554.591 285.217 554.854 284.887 555 284.538 555Z" fill-rule="evenodd"></path><path d="M273.719 563C270.014 563 267 559.986 267 556.281L267 526.719C267 523.014 270.014 520 273.719 520L303.281 520C306.986 520 310 523.014 310 526.719L310 556.281C310 559.986 306.986 563 303.281 563L273.719 563ZM273.719 522.688C271.495 522.688 269.688 524.495 269.688 526.719L269.688 556.281C269.688 558.505 271.495 560.312 273.719 560.312L303.281 560.312C305.505 560.312 307.312 558.505 307.312 556.281L307.312 526.719C307.312 524.495 305.505 522.688 303.281 522.688L273.719 522.688Z" fill-rule="evenodd"></path><path d="M149.001 556C148.839 556 148.676 555.971 148.519 555.915 148.508 555.911 148.499 555.908 148.488 555.904 148.293 555.826 148.14 555.725 148.01 555.596L142.409 550.057C141.864 549.518 141.864 548.639 142.409 548.099 142.674 547.836 143.025 547.692 143.398 547.692 143.772 547.692 144.125 547.836 144.388 548.099L147.599 551.274 147.599 539.385C147.599 538.62 148.226 538 148.999 538 149.772 538 150.401 538.62 150.401 539.385L150.401 551.272 153.612 548.097C153.877 547.835 154.228 547.69 154.602 547.69 154.975 547.69 155.328 547.835 155.591 548.097 156.136 548.636 156.136 549.515 155.591 550.055L149.99 555.594C149.86 555.723 149.707 555.825 149.533 555.895 149.518 555.9 149.501 555.908 149.484 555.913 149.333 555.971 149.167 556 149.001 556Z" fill-rule="evenodd"></path><path d="M135.5 551C134.782 551 134.2 550.414 134.2 549.692L134.2 538.465 131.219 541.464C130.972 541.712 130.647 541.848 130.3 541.848 129.953 541.848 129.626 541.712 129.381 541.464 129.135 541.217 129 540.887 129 540.538 129 540.19 129.135 539.86 129.381 539.614L134.58 534.384C134.701 534.262 134.843 534.166 135.004 534.099 135.018 534.092 135.034 534.087 135.049 534.082 135.197 534.028 135.348 534 135.5 534 135.654 534 135.807 534.028 135.952 534.084 135.965 534.087 135.978 534.092 135.989 534.096 136.157 534.166 136.299 534.262 136.42 534.385L141.619 539.614C141.865 539.86 142 540.19 142 540.538 142 540.887 141.865 541.217 141.619 541.463 141.374 541.71 141.047 541.846 140.7 541.846 140.353 541.846 140.026 541.71 139.781 541.463L136.8 538.465 136.8 549.692C136.8 550.414 136.218 551 135.5 551Z" fill-rule="evenodd"></path><path d="M127.719 566C124.014 566 121 562.986 121 559.281L121 529.719C121 526.014 124.014 523 127.719 523L157.281 523C160.986 523 164 526.014 164 529.719L164 559.281C164 562.986 160.986 566 157.281 566L127.719 566ZM127.719 525.688C125.495 525.688 123.688 527.495 123.688 529.719L123.688 559.281C123.688 561.505 125.495 563.312 127.719 563.312L157.281 563.312C159.505 563.312 161.312 561.505 161.312 559.281L161.312 529.719C161.312 527.495 159.505 525.688 157.281 525.688L127.719 525.688Z" fill-rule="evenodd"></path><g clip-path="url(#clip0)"><g clip-path="url(#clip1)"><g clip-path="url(#clip2)"><path d="M853.994 289.895C853.946 289.895 853.9 289.893 853.852 289.887 843.009 288.854 836 285 836 280.066L836 257.066C836 251.33 845.888 247.004 859 247.004 872.112 247.004 882 251.33 882 257.066L882 270.004C882 270.797 881.356 271.441 880.562 271.441 879.769 271.441 879.125 270.797 879.125 270.004L879.125 262.103C877.772 263.169 875.97 264.104 873.743 264.89 873.588 264.944 873.427 264.973 873.264 264.973 872.656 264.973 872.11 264.587 871.909 264.014 871.644 263.267 872.037 262.444 872.785 262.18 876.756 260.777 879.125 258.864 879.125 257.066 879.125 254.128 871.959 249.879 859 249.879 846.041 249.879 838.875 254.128 838.875 257.066 838.875 260.005 846.041 264.254 859 264.254 860.376 264.254 861.747 264.2 863.071 264.095 863.109 264.091 863.148 264.091 863.188 264.091 863.932 264.091 864.56 264.672 864.618 265.415 864.681 266.205 864.089 266.899 863.299 266.962 861.902 267.073 860.455 267.129 859.002 267.129 850.421 267.129 842.814 265.181 838.877 262.075L838.877 268.566C838.877 270.983 843.402 274.067 852.05 275.28 852.836 275.392 853.384 276.12 853.273 276.904 853.173 277.609 852.562 278.142 851.851 278.142 851.786 278.142 851.719 278.138 851.651 278.129 846.034 277.339 841.587 275.754 838.875 273.599L838.875 280.068C838.875 283.208 845.432 286.2 854.128 287.028 854.509 287.064 854.856 287.246 855.1 287.543 855.345 287.84 855.458 288.214 855.422 288.595 855.353 289.335 854.737 289.895 853.994 289.895Z"></path><path d="M861.645 293.004C861.388 293.004 861.131 292.969 860.882 292.904 860.123 292.701 859.487 292.214 859.094 291.534 858.636 290.742 858.575 289.767 858.927 288.923L861.216 283.656 857.227 280.977C857.172 280.94 857.12 280.9 857.072 280.856 856.508 280.358 856.169 279.662 856.123 278.903 856.077 278.144 856.328 277.414 856.832 276.844 857.373 276.235 858.155 275.886 858.977 275.886L863.771 275.886 866.373 269.013C866.393 268.963 866.416 268.911 866.442 268.86 866.808 268.158 867.426 267.641 868.179 267.403 868.47 267.313 868.769 267.265 869.07 267.265 869.542 267.265 870.013 267.382 870.435 267.6 870.973 267.882 871.409 268.315 871.69 268.856 871.719 268.909 871.742 268.963 871.761 269.017L874.366 275.886 879.175 275.886C880.679 275.886 881.952 277.113 882.011 278.621 882.044 279.474 881.697 280.291 881.061 280.858 881.011 280.902 880.959 280.942 880.906 280.977L876.917 283.656 879.2 288.908C879.51 289.648 879.514 290.449 879.215 291.177 878.918 291.904 878.356 292.471 877.63 292.776 877.273 292.925 876.892 293 876.499 293L876.499 293C875.98 293 875.47 292.864 875.023 292.605L869.064 289.253 863.1 292.613C862.663 292.868 862.157 293.004 861.645 293.004ZM869.062 286.167C869.308 286.167 869.551 286.23 869.766 286.351L876.447 290.11 876.499 290.127C876.539 290.115 876.551 290.104 876.559 290.087 876.566 290.069 876.566 290.054 876.559 290.035L873.806 283.702C873.53 283.064 873.747 282.322 874.324 281.935L879.052 278.759 873.375 278.761C872.781 278.761 872.24 278.387 872.031 277.833L869.126 270.176C869.105 270.165 869.066 270.142 869.066 270.142 869.038 270.148 869.022 270.155 869.011 270.163L866.107 277.833C865.896 278.389 865.358 278.761 864.763 278.761L859.084 278.761 863.811 281.935C864.388 282.32 864.604 283.064 864.328 283.7L861.568 290.05C861.568 290.05 861.568 290.073 861.578 290.092 861.588 290.11 861.601 290.119 861.62 290.125 861.624 290.123 861.674 290.115 861.678 290.113L868.355 286.351C868.572 286.23 868.815 286.167 869.062 286.167Z"></path></g></g></g><g clip-path="url(#clip3)"><g clip-path="url(#clip4)"><g clip-path="url(#clip5)"><path d="M284.611 427.953C273.477 427.063 266 423.09 266 418.064L266 395.064C266 389.328 275.888 385.002 289 385.002 302.112 385.002 312 389.328 312 395.064L312 406.564C312 407.358 311.356 408.002 310.562 408.002 309.769 408.002 309.125 407.358 309.125 406.564L309.125 400.086C308.119 400.883 306.865 401.608 305.382 402.248 305.2 402.325 305.01 402.365 304.812 402.365 304.237 402.365 303.718 402.024 303.492 401.497 303.341 401.146 303.335 400.755 303.477 400.397 303.618 400.04 303.891 399.76 304.243 399.607 307.346 398.269 309.125 396.613 309.125 395.064 309.125 392.126 301.959 387.877 289 387.877 276.041 387.877 268.875 392.126 268.875 395.064 268.875 397.884 274.845 401.282 284.835 402.085 285.625 402.148 286.215 402.844 286.152 403.634 286.092 404.376 285.464 404.956 284.72 404.956 284.682 404.956 284.642 404.954 284.601 404.951 277.789 404.402 272.089 402.616 268.875 400.077L268.875 406.564C268.875 409.186 273.73 411.86 280.682 413.066 281.462 413.202 281.989 413.945 281.853 414.728 281.734 415.418 281.138 415.92 280.436 415.92 280.354 415.92 280.27 415.912 280.185 415.899 275.267 415.046 271.334 413.543 268.875 411.603L268.875 418.066C268.875 420.892 274.845 424.29 284.835 425.087 285.216 425.118 285.565 425.296 285.815 425.587 286.064 425.879 286.184 426.25 286.154 426.634 286.094 427.376 285.466 427.956 284.722 427.956 284.686 427.956 284.649 427.954 284.611 427.953Z"></path><path d="M310.562 431.002C310.179 431.002 309.817 430.852 309.547 430.58L303.235 424.269C301.221 425.835 298.744 426.689 296.188 426.689 289.847 426.689 284.688 421.53 284.688 415.189 284.688 408.849 289.847 403.689 296.188 403.689 302.528 403.689 307.688 408.849 307.688 415.189 307.688 417.744 306.833 420.223 305.267 422.237L311.578 428.549C312.138 429.108 312.138 430.021 311.578 430.582 311.308 430.852 310.946 431.002 310.562 431.002ZM296.188 406.564C291.432 406.564 287.562 410.434 287.562 415.189 287.562 419.945 291.432 423.814 296.188 423.814 300.943 423.814 304.812 419.945 304.812 415.189 304.812 410.434 300.943 406.564 296.188 406.564Z"></path></g></g></g><g clip-path="url(#clip6)"><g clip-path="url(#clip7)"><g clip-path="url(#clip8)"><path d="M1008.34 294.102C995.985 293.742 987 289.519 987 284.064L987 261.064C987 255.328 996.888 251.002 1010 251.002 1023.11 251.002 1033 255.328 1033 261.064L1033 271.127C1033 271.92 1032.36 272.564 1031.56 272.564 1030.77 272.564 1030.12 271.92 1030.12 271.127L1030.12 266.086C1029.11 266.889 1027.85 267.617 1026.35 268.26 1026.17 268.336 1025.98 268.376 1025.78 268.376 1025.21 268.376 1024.69 268.033 1024.46 267.504 1024.31 267.154 1024.31 266.763 1024.45 266.406 1024.59 266.05 1024.87 265.77 1025.22 265.618 1028.29 264.3 1030.12 262.596 1030.12 261.064 1030.12 258.126 1022.96 253.877 1010 253.877 997.041 253.877 989.875 258.126 989.875 261.064 989.875 261.856 990.335 262.672 991.244 263.491 993.873 265.862 1000.68 268.256 1009.96 268.254 1011.83 268.254 1013.74 268.154 1015.63 267.957 1015.68 267.951 1015.73 267.949 1015.78 267.949 1016.52 267.949 1017.13 268.503 1017.21 269.237 1017.29 270.027 1016.72 270.734 1015.93 270.816 1013.96 271.021 1011.96 271.125 1009.97 271.125 1001.42 271.125 993.827 269.21 989.875 266.094L989.875 272.562C989.875 275.761 997.34 279.403 1008.45 279.729 1008.83 279.74 1009.19 279.9 1009.46 280.179 1009.72 280.459 1009.86 280.823 1009.85 281.207 1009.82 281.989 1009.19 282.602 1008.41 282.602 1008.39 282.602 1008.36 282.602 1008.34 282.6 1000.4 282.37 993.549 280.476 989.875 277.565L989.875 284.064C989.875 287.263 997.34 290.905 1008.45 291.231 1008.83 291.242 1009.19 291.401 1009.46 291.681 1009.72 291.961 1009.86 292.325 1009.85 292.709 1009.82 293.491 1009.19 294.104 1008.41 294.104 1008.39 294.104 1008.36 294.104 1008.34 294.102Z"></path><path d="M1017.19 297.002C1014.81 297.002 1012.88 295.068 1012.88 292.689L1012.88 284.064C1012.88 282.224 1014.05 280.599 1015.75 279.999L1015.75 278.314C1015.75 274.351 1018.97 271.127 1022.94 271.127 1026.9 271.127 1030.12 274.351 1030.12 278.314L1030.12 279.999C1031.82 280.601 1033 282.226 1033 284.064L1033 292.689C1033 295.068 1031.07 297.002 1028.69 297.002L1017.19 297.002ZM1017.19 282.627C1016.39 282.627 1015.75 283.271 1015.75 284.064L1015.75 292.689C1015.75 293.483 1016.39 294.127 1017.19 294.127L1028.69 294.127C1029.48 294.127 1030.12 293.483 1030.12 292.689L1030.12 284.064C1030.12 283.271 1029.48 282.627 1028.69 282.627L1017.19 282.627ZM1027.25 279.752 1027.25 278.314C1027.25 275.936 1025.32 274.002 1022.94 274.002 1020.56 274.002 1018.62 275.936 1018.62 278.314L1027.25 279.752Z"></path><path d="M1025.09 288.432C1025.09 289.623 1024.13 290.589 1022.94 290.589 1021.75 290.589 1020.78 289.623 1020.78 288.432 1020.78 287.242 1021.75 286.276 1022.94 286.276 1024.13 286.276 1025.09 287.242 1025.09 288.432Z"></path></g></g></g><g clip-path="url(#clip9)"><g clip-path="url(#clip10)"><g clip-path="url(#clip11)"><path d="M15.4856 41.7113C15.4219 41.7113 15.3562 41.7075 15.2906 41.6981 5.8575 40.3669 3.33068e-15 36.7837 3.33068e-15 32.3456L3.33068e-15 9.84562C3.33068e-15 4.23375 9.67313 0.001875 22.5 0.001875 35.3269 0.001875 45 4.23375 45 9.84562L45 21.0956C45 21.8719 44.37 22.5019 43.5938 22.5019 42.8175 22.5019 42.1875 21.8719 42.1875 21.0956L42.1875 14.7712C40.905 15.7838 39.2062 16.6744 37.1194 17.4281 36.9638 17.4844 36.8044 17.5125 36.6413 17.5125 36.0506 17.5125 35.52 17.1394 35.3194 16.5844 35.055 15.8569 35.4338 15.0487 36.1612 14.7844 39.9338 13.4194 42.1875 11.5725 42.1875 9.84562 42.1875 6.97125 35.1769 2.81438 22.5 2.81438 9.82312 2.81438 2.8125 6.97125 2.8125 9.84562 2.8125 10.5806 3.21938 11.34 4.02187 12.1012 7.03125 14.9569 14.4806 16.875 22.5581 16.875 23.4712 16.875 24.3938 16.8506 25.3013 16.8019 25.3219 16.8 25.3538 16.8 25.3875 16.8 26.1281 16.8 26.7394 17.385 26.7806 18.1331 26.8219 18.9075 26.2256 19.5712 25.4513 19.6125 24.4688 19.665 23.475 19.6912 22.4981 19.6912 14.0775 19.6912 6.67688 17.8237 2.8125 14.7712L2.8125 21.0994C2.8125 24.0094 9.29062 27.4988 19.7588 28.0575 20.5331 28.0988 21.1294 28.7625 21.0881 29.5369 21.0487 30.2831 20.4319 30.8681 19.6838 30.8681 19.6744 30.8681 19.6294 30.8681 19.6219 30.8662 12.2887 30.4744 6.19125 28.6875 2.8125 26.0044L2.8125 32.3494C2.8125 34.71 7.23375 37.725 15.6825 38.9156 16.4513 39.0244 16.9875 39.7369 16.8787 40.5056 16.7794 41.1919 16.1812 41.7113 15.4856 41.7113Z" transform="matrix(1 0 0 1.02222 1124 250)"></path><path d="M34.4513 38.6737C34.4513 39.8387 33.5069 40.7831 32.3419 40.7831 31.1769 40.7831 30.2325 39.8387 30.2325 38.6737 30.2325 37.5088 31.1769 36.5644 32.3419 36.5644 33.5069 36.5644 34.4513 37.5088 34.4513 38.6737Z" transform="matrix(1 0 0 1.02222 1124 250)"></path><path d="M32.3419 35.1581C31.5656 35.1581 30.9356 34.5281 30.9356 33.7519L30.9356 28.1269C30.9356 27.3506 31.5656 26.7206 32.3419 26.7206 33.1181 26.7206 33.7481 27.3506 33.7481 28.1269L33.7481 33.7519C33.7481 34.5281 33.1181 35.1581 32.3419 35.1581Z" transform="matrix(1 0 0 1.02222 1124 250)"></path><path d="M24.4181 45.0019C23.1525 45.0019 21.9637 44.5088 21.0694 43.6125 20.175 42.7181 19.6838 41.5294 19.6838 40.2638 19.6838 39.5363 19.8563 38.805 20.1825 38.1525L28.1062 22.305C28.9144 20.6925 30.54 19.6912 32.3475 19.6912 33.0863 19.6912 33.7969 19.86 34.4606 20.1919 35.3681 20.6475 36.1181 21.3975 36.5719 22.305L44.4956 38.1525C45.6619 40.4888 44.7113 43.3387 42.375 44.5031 41.7244 44.8294 40.9931 45.0019 40.2638 45.0019L24.4181 45.0019ZM32.3475 22.5019C31.6125 22.5019 30.9525 22.9088 30.6244 23.5631L22.7025 39.4087C22.5713 39.6731 22.5 39.9694 22.5 40.2656 22.5 40.7794 22.6987 41.2612 23.0625 41.625 23.4263 41.9887 23.9081 42.1875 24.4219 42.1894L40.2675 42.1894C40.5619 42.1894 40.86 42.1181 41.1244 41.9869 42.0713 41.5144 42.4575 40.3575 41.985 39.4087L34.0612 23.5631C33.8775 23.1956 33.5737 22.8919 33.2044 22.7062 32.9344 22.5713 32.6456 22.5019 32.3475 22.5019Z" transform="matrix(1 0 0 1.02222 1124 250)"></path></g></g></g><g clip-path="url(#clip12)"><g clip-path="url(#clip13)"><g clip-path="url(#clip14)"><path d="M717.334 286.146C706.962 285.295 700 281.584 700 276.908L700 255.408C700 250.046 709.243 246.002 721.5 246.002 733.757 246.002 743 250.046 743 255.408L743 264.775C743 265.517 742.398 266.119 741.656 266.119 740.914 266.119 740.312 265.517 740.312 264.775L740.312 260.113C739.101 261.066 737.507 261.908 735.547 262.625 735.398 262.679 735.244 262.707 735.086 262.707 734.525 262.707 734.018 262.353 733.825 261.826 733.701 261.487 733.717 261.123 733.868 260.797 734.018 260.471 734.289 260.224 734.626 260.102 738.188 258.8 740.312 257.046 740.312 255.408 740.312 252.661 733.613 248.689 721.5 248.689 709.387 248.689 702.688 252.661 702.688 255.408 702.688 258.155 709.387 262.127 721.5 262.127 722.242 262.127 722.844 262.729 722.844 263.471 722.844 264.212 722.242 264.814 721.5 264.814 713.479 264.814 706.368 262.994 702.688 260.09L702.688 266.158C702.688 268.414 706.91 271.291 714.98 272.431 715.713 272.535 716.225 273.215 716.123 273.95 716.03 274.609 715.458 275.106 714.794 275.106 714.733 275.106 714.67 275.102 714.607 275.093 709.369 274.353 705.219 272.871 702.689 270.859L702.689 276.908C702.689 279.533 708.247 282.704 717.548 283.466 717.906 283.494 718.23 283.661 718.463 283.935 718.696 284.209 718.807 284.557 718.778 284.913 718.721 285.605 718.133 286.148 717.44 286.148 717.404 286.149 717.37 286.148 717.334 286.146Z"></path><path d="M730.906 289.002C724.238 289.002 718.812 283.577 718.812 276.908 718.812 270.239 724.238 264.814 730.906 264.814 737.575 264.814 743 270.239 743 276.908 743 283.577 737.575 289.002 730.906 289.002ZM730.906 267.502C725.719 267.502 721.5 271.721 721.5 276.908 721.5 282.095 725.719 286.314 730.906 286.314 736.093 286.314 740.312 282.095 740.312 276.908 740.312 271.721 736.093 267.502 730.906 267.502Z"></path><path d="M730.906 283.627C730.164 283.627 729.562 283.025 729.562 282.283L729.562 274.778 727.825 276.516C727.57 276.77 727.233 276.91 726.875 276.91 726.517 276.91 726.178 276.77 725.925 276.516 725.402 275.992 725.402 275.14 725.925 274.615L729.957 270.583C730.082 270.458 730.229 270.359 730.396 270.291 730.41 270.286 730.426 270.279 730.442 270.273 730.589 270.218 730.747 270.189 730.906 270.189 731.062 270.189 731.218 270.218 731.368 270.272 731.379 270.275 731.388 270.279 731.399 270.282 731.585 270.358 731.732 270.456 731.858 270.582L735.889 274.613C736.412 275.136 736.412 275.989 735.889 276.514 735.634 276.768 735.298 276.908 734.939 276.908 734.581 276.908 734.242 276.768 733.99 276.514L732.25 274.778 732.25 282.283C732.25 283.025 731.648 283.627 730.906 283.627Z"></path></g></g></g><g clip-path="url(#clip15)"><g clip-path="url(#clip16)"><g clip-path="url(#clip17)"><path d="M32.9219 34.2656C31.811 34.2656 30.9062 33.3608 30.9062 32.25 30.9062 31.1768 31.7465 30.2953 32.8215 30.2415 32.8538 30.238 32.8914 30.2344 32.9219 30.2344 34.0327 30.2344 34.9375 31.1392 34.9375 32.25 34.9375 33.3608 34.0327 34.2656 32.9219 34.2656Z" transform="matrix(1.02326 0 0 1 557 386)"></path><path d="M26.875 34.2656C25.7642 34.2656 24.8594 33.3608 24.8594 32.25 24.8594 31.1804 25.6979 30.3007 26.7675 30.2433 26.7693 30.2433 26.7854 30.2397 26.8015 30.2397 26.8266 30.238 26.8535 30.2362 26.875 30.2362 27.9858 30.2362 28.8906 31.141 28.8906 32.2518 28.8906 33.3626 27.9858 34.2656 26.875 34.2656Z" transform="matrix(1.02326 0 0 1 557 386)"></path><path d="M9.40625 41.6562C4.21938 41.6562 0 37.4369 0 32.25 0 31.5799 0.0770417 30.8919 0.231125 30.2039 0.234708 30.1735 0.240083 30.1394 0.24725 30.1036L5.78171 6.52883C6.49658 3.47583 9.18767 1.34375 12.3231 1.34375L30.6787 1.34375C33.8141 1.34375 36.5034 3.47583 37.2183 6.52883L42.751 30.1036C42.7563 30.1251 42.7635 30.1699 42.7689 30.2021 42.923 30.8901 43 31.5781 43 32.25 43 37.4369 38.7806 41.6562 33.5938 41.6562L9.40625 41.6562ZM9.40625 25.5312C5.70108 25.5312 2.6875 28.5448 2.6875 32.25 2.6875 35.9552 5.70108 38.9688 9.40625 38.9688L33.5938 38.9688C37.2989 38.9688 40.3125 35.9552 40.3125 32.25 40.3125 28.5448 37.2989 25.5312 33.5938 25.5312L9.40625 25.5312ZM33.5938 22.8438C35.4015 22.8438 37.1377 23.3544 38.6319 24.3093L34.6025 7.14158C34.1725 5.3105 32.56 4.03125 30.6787 4.03125L12.3231 4.03125C10.4418 4.03125 8.82754 5.3105 8.39754 7.14158L4.36808 24.3093C5.86233 23.3562 7.59667 22.8438 9.40446 22.8438L33.5938 22.8438Z" transform="matrix(1.02326 0 0 1 557 386)"></path><path d="M9.40625 33.5938C8.6645 33.5938 8.0625 32.9917 8.0625 32.25 8.0625 31.5082 8.6645 30.9062 9.40625 30.9062L16.125 30.9062C16.8667 30.9062 17.4688 31.5082 17.4688 32.25 17.4688 32.9917 16.8667 33.5938 16.125 33.5938L9.40625 33.5938Z" transform="matrix(1.02326 0 0 1 557 386)"></path></g></g></g><g clip-path="url(#clip18)"><g clip-path="url(#clip19)"><g clip-path="url(#clip20)"><path d="M28.2188 13.4375C27.8604 13.4375 27.5218 13.2977 27.2692 13.0433 27.0147 12.7907 26.875 12.4521 26.875 12.0938 26.875 11.7354 27.0147 11.3968 27.2692 11.1442L30.3508 8.0625 1.34375 8.0625C0.602 8.0625 0 7.4605 0 6.71875 0 5.977 0.602 5.375 1.34375 5.375L30.349 5.375 27.2674 2.29333C27.0147 2.04071 26.875 1.70208 26.875 1.34375 26.875 0.985417 27.0147 0.646792 27.2692 0.394167 27.5236 0.141542 27.8604 0 28.2188 0 28.5771 0 28.9157 0.13975 29.1683 0.394167L34.5433 5.76917C34.6688 5.89458 34.7673 6.0415 34.8354 6.20812 34.8407 6.22246 34.8479 6.23858 34.8533 6.25471 34.907 6.39983 34.9375 6.5575 34.9375 6.71875 34.9375 6.87462 34.9088 7.0305 34.8533 7.181 34.8497 7.19175 34.8461 7.20071 34.8425 7.20967 34.7673 7.396 34.667 7.54292 34.5415 7.67013L29.1683 13.0433C28.9157 13.2977 28.5771 13.4375 28.2188 13.4375Z" transform="matrix(1.02326 0 0 1 407 518)"></path><path d="M28.2188 43C27.8604 43 27.5218 42.8603 27.2692 42.6058 26.746 42.0827 26.746 41.2298 27.2692 40.7049L30.3508 37.6232 1.34375 37.6232C0.602 37.625 0 37.023 0 36.2812 0 35.5395 0.602 34.9375 1.34375 34.9375L30.349 34.9375 27.2674 31.8558C26.7442 31.3327 26.7442 30.4798 27.2674 29.9549 27.5218 29.7005 27.8586 29.5607 28.217 29.5607 28.5753 29.5607 28.9139 29.7005 29.1665 29.9549L34.5415 35.3299C34.667 35.4553 34.7655 35.6022 34.8336 35.7688 34.839 35.7832 34.8461 35.7993 34.8515 35.8154 34.907 35.9605 34.9357 36.12 34.9357 36.2795 34.9357 36.4353 34.907 36.5912 34.8533 36.7417 34.8497 36.7525 34.8461 36.7614 34.8425 36.7722 34.7673 36.9585 34.6688 37.1054 34.5433 37.2308L29.1683 42.6058C28.9157 42.8603 28.5771 43 28.2188 43Z" transform="matrix(1.02326 0 0 1 407 518)"></path><path d="M14.7812 28.2188C14.4229 28.2188 14.0843 28.079 13.8317 27.8246L8.45667 22.4496C8.33125 22.3242 8.23271 22.1772 8.16463 22.0106 8.15925 21.9963 8.15208 21.9802 8.14671 21.964 8.09117 21.8117 8.0625 21.6577 8.0625 21.5 8.0625 21.3405 8.09117 21.1847 8.1485 21.0324 8.15208 21.0198 8.15746 21.0073 8.16283 20.9948 8.2345 20.821 8.33304 20.674 8.46025 20.5486L13.8317 15.1754C14.0861 14.921 14.4229 14.7812 14.7812 14.7812 15.1396 14.7812 15.4782 14.921 15.7308 15.1754 15.9852 15.428 16.125 15.7667 16.125 16.125 16.125 16.4833 15.9852 16.822 15.7308 17.0746L12.6492 20.1562 41.6562 20.1562C42.398 20.1562 43 20.7583 43 21.5 43 22.2417 42.398 22.8438 41.6562 22.8438L12.651 22.8438 15.7326 25.9254C16.2558 26.4486 16.2558 27.3014 15.7326 27.8264 15.4782 28.079 15.1396 28.2188 14.7812 28.2188Z" transform="matrix(1.02326 0 0 1 407 518)"></path></g></g></g><g><g><g><path d="M576.504 542.314C576.406 542.314 576.308 542.305 576.214 542.285 576.155 542.273 576.099 542.256 576.042 542.236 576.02 542.23 575.981 542.219 575.944 542.203 575.869 542.172 575.809 542.138 575.75 542.103 575.717 542.087 575.705 542.079 575.674 542.058 575.605 542.013 575.531 541.952 575.464 541.884L566.652 533.071C566.373 532.793 566.221 532.425 566.221 532.033 566.221 531.642 566.373 531.271 566.652 530.995 566.928 530.717 567.298 530.564 567.689 530.564 568.081 530.564 568.451 530.717 568.727 530.995L575.033 537.301 575.033 511.471C575.033 510.66 575.691 510.002 576.502 510.002 577.313 510.002 577.971 510.66 577.971 511.471L577.971 537.301 584.277 530.995C584.555 530.717 584.923 530.564 585.314 530.564 585.706 530.564 586.076 530.717 586.352 530.995 586.63 531.271 586.783 531.642 586.783 532.033 586.783 532.425 586.63 532.795 586.352 533.071L577.54 541.884C577.471 541.952 577.397 542.013 577.317 542.068 577.291 542.085 577.244 542.111 577.215 542.126 577.195 542.14 577.135 542.173 577.07 542.201 577.039 542.215 576.978 542.234 576.946 542.242 576.907 542.256 576.851 542.273 576.792 542.285 576.7 542.305 576.602 542.314 576.504 542.314Z"></path><path d="M564.75 557C560.7 557 557.406 553.706 557.406 549.656L557.406 524.688C557.406 520.638 560.7 517.344 564.75 517.344L569.156 517.344C569.967 517.344 570.625 518.002 570.625 518.812 570.625 519.623 569.967 520.281 569.156 520.281L564.75 520.281C562.32 520.281 560.344 522.257 560.344 524.688L560.344 549.656C560.344 552.087 562.32 554.062 564.75 554.062L588.25 554.062C590.68 554.062 592.656 552.087 592.656 549.656L592.656 524.688C592.656 522.257 590.68 520.281 588.25 520.281L583.848 520.281C583.037 520.281 582.379 519.623 582.379 518.812 582.379 518.002 583.037 517.344 583.848 517.344L588.25 517.344C592.3 517.344 595.594 520.638 595.594 524.688L595.594 549.656C595.594 553.706 592.3 557 588.25 557L564.75 557Z"></path></g></g></g><g><g><g><path d="M1127.72 555C1124.01 555 1121 551.986 1121 548.281 1121 547.814 1121.05 547.333 1121.16 546.859 1121.16 546.835 1121.16 546.808 1121.17 546.792L1125.46 527.976C1126.16 524.9 1128.85 522.752 1132.01 522.752L1134.44 522.752C1135.18 522.752 1135.78 523.354 1135.78 524.096 1135.78 524.837 1135.18 525.439 1134.44 525.439L1132.01 525.439C1130.11 525.439 1128.5 526.727 1128.08 528.575L1124.98 542.147C1125.84 541.761 1126.76 541.562 1127.72 541.562L1157.28 541.562C1158.24 541.562 1159.16 541.761 1160.02 542.147L1156.92 528.573C1156.5 526.727 1154.89 525.438 1152.99 525.438L1150.56 525.438C1149.82 525.438 1149.22 524.836 1149.22 524.094 1149.22 523.352 1149.82 522.75 1150.56 522.75L1152.99 522.75C1156.15 522.75 1158.84 524.898 1159.54 527.974L1163.83 546.787C1163.84 546.807 1163.84 546.835 1163.84 546.86 1163.95 547.335 1164 547.814 1164 548.281 1164 551.986 1160.99 555 1157.28 555L1127.72 555ZM1127.72 544.25C1125.5 544.25 1123.69 546.058 1123.69 548.281 1123.69 550.505 1125.5 552.312 1127.72 552.312L1157.28 552.312C1159.5 552.312 1161.31 550.505 1161.31 548.281 1161.31 546.058 1159.5 544.25 1157.28 544.25L1127.72 544.25Z"></path><path d="M1157.28 548.281C1157.28 549.394 1156.38 550.297 1155.27 550.297 1154.15 550.297 1153.25 549.394 1153.25 548.281 1153.25 547.168 1154.15 546.266 1155.27 546.266 1156.38 546.266 1157.28 547.168 1157.28 548.281Z"></path><path d="M1129.06 549.625C1128.32 549.625 1127.72 549.023 1127.72 548.281 1127.72 547.539 1128.32 546.938 1129.06 546.938L1138.47 546.938C1139.21 546.938 1139.81 547.539 1139.81 548.281 1139.81 549.023 1139.21 549.625 1138.47 549.625L1129.06 549.625Z"></path><path d="M1142.5 536.188C1142.34 536.188 1142.19 536.159 1142.03 536.103 1142.02 536.098 1142.01 536.094 1141.99 536.089 1141.82 536.019 1141.67 535.921 1141.55 535.793L1136.18 530.418C1135.92 530.166 1135.78 529.827 1135.78 529.469 1135.78 529.11 1135.92 528.772 1136.18 528.519 1136.43 528.265 1136.77 528.125 1137.12 528.125 1137.48 528.125 1137.82 528.265 1138.07 528.519L1141.16 531.601 1141.16 513.344C1141.16 512.602 1141.76 512 1142.5 512 1143.24 512 1143.84 512.602 1143.84 513.344L1143.84 531.599 1146.93 528.517C1147.18 528.265 1147.52 528.125 1147.88 528.125 1148.23 528.125 1148.57 528.265 1148.82 528.519 1149.08 528.772 1149.22 529.11 1149.22 529.469 1149.22 529.827 1149.08 530.166 1148.82 530.418L1143.45 535.793C1143.32 535.919 1143.18 536.017 1143.01 536.087 1142.99 536.093 1142.98 536.1 1142.96 536.105 1142.81 536.161 1142.66 536.188 1142.5 536.188Z"></path></g></g></g><g clip-path="url(#clip21)"><g clip-path="url(#clip22)"><g clip-path="url(#clip23)"><path d="M6.25 40C2.80333 40 0 37.1967 0 33.75 0 33.315 0.0483333 32.8683 0.145 32.4267 0.148333 32.405 0.151667 32.38 0.155 32.365L4.14667 14.8617C4.79833 12 7.305 10.0017 10.24 10.0017L12.5 10.0017C13.19 10.0017 13.75 10.5617 13.75 11.2517 13.75 11.9417 13.19 12.5017 12.5 12.5017L10.24 12.5017C8.47833 12.5017 6.975 13.7 6.58333 15.4183L3.705 28.0433C4.49833 27.685 5.35833 27.5 6.25 27.5L33.75 27.5C34.64 27.5 35.5017 27.685 36.295 28.0433L33.4167 15.4167C33.025 13.7 31.5217 12.5 29.76 12.5L27.5 12.5C26.81 12.5 26.25 11.94 26.25 11.25 26.25 10.56 26.81 10 27.5 10L29.76 10C32.695 10 35.2017 11.9983 35.8533 14.86L39.8433 32.36C39.8467 32.3783 39.8517 32.405 39.855 32.4283 39.9517 32.87 40 33.315 40 33.75 40 37.1967 37.1967 40 33.75 40L6.25 40ZM6.25 30C4.18167 30 2.5 31.6817 2.5 33.75 2.5 35.8183 4.18167 37.5 6.25 37.5L33.75 37.5C35.8183 37.5 37.5 35.8183 37.5 33.75 37.5 31.6817 35.8183 30 33.75 30L6.25 30Z" transform="matrix(1.025 0 0 1 986 515)"></path><path d="M33.75 33.75C33.75 34.7855 32.9105 35.625 31.875 35.625 30.8395 35.625 30 34.7855 30 33.75 30 32.7145 30.8395 31.875 31.875 31.875 32.9105 31.875 33.75 32.7145 33.75 33.75Z" transform="matrix(1.025 0 0 1 986 515)"></path><path d="M7.5 35C6.81 35 6.25 34.44 6.25 33.75 6.25 33.06 6.81 32.5 7.5 32.5L16.25 32.5C16.94 32.5 17.5 33.06 17.5 33.75 17.5 34.44 16.94 35 16.25 35L7.5 35Z" transform="matrix(1.025 0 0 1 986 515)"></path><path d="M20 22.5C19.31 22.5 18.75 21.94 18.75 21.25L18.75 4.26833 15.8833 7.13333C15.6483 7.37 15.3333 7.5 15 7.5 14.6667 7.5 14.3517 7.37 14.1167 7.13333 13.88 6.89833 13.75 6.58333 13.75 6.25 13.75 5.91667 13.88 5.60167 14.1167 5.36667L19.115 0.368333C19.2317 0.251667 19.3683 0.16 19.5233 0.0966667 19.5367 0.0916667 19.55 0.0866667 19.565 0.0816667 19.7083 0.0266667 19.8533 0 20 0 20.1483 0 20.295 0.0266667 20.435 0.08 20.4467 0.0833333 20.4583 0.0883333 20.4683 0.0916667 20.63 0.158333 20.7667 0.25 20.885 0.368333L25.8833 5.36667C26.12 5.60167 26.25 5.91667 26.25 6.25 26.25 6.58333 26.12 6.89833 25.8833 7.13333 25.6467 7.36833 25.3333 7.5 25 7.5 24.6667 7.5 24.3517 7.37 24.1167 7.13333L21.25 4.26667 21.25 21.25C21.25 21.94 20.69 22.5 20 22.5Z" transform="matrix(1.025 0 0 1 986 515)"></path></g></g></g><g><g><g><path d="M849.191 556C846.809 555.992 844.881 554.051 844.888 551.674 844.89 551.16 844.982 550.656 845.162 550.175L846.966 544.494C847.269 543.683 847.775 543.003 848.432 542.507 847.992 541.819 847.754 541.019 847.754 540.188L847.754 528.688C847.754 526.309 849.688 524.375 852.066 524.375L854.941 524.375C855.735 524.375 856.379 525.019 856.379 525.812 856.379 526.606 855.733 527.25 854.939 527.25L852.064 527.25C851.271 527.25 850.627 527.894 850.627 528.688L850.627 540.188C850.627 540.981 851.271 541.625 852.064 541.625L877.939 541.625C878.733 541.625 879.377 540.981 879.377 540.188L879.377 528.688C879.377 527.894 878.733 527.25 877.939 527.25L875.064 527.25C874.271 527.25 873.627 526.606 873.627 525.812 873.627 525.019 874.271 524.375 875.064 524.375L877.939 524.375C880.318 524.375 882.252 526.309 882.252 528.688L882.252 540.188C882.252 541.081 881.968 541.953 881.453 542.677 882.007 543.149 882.432 543.749 882.685 544.425L884.841 550.175C885.246 551.254 885.206 552.425 884.728 553.474 884.251 554.522 883.394 555.321 882.315 555.726 881.834 555.906 881.33 555.998 880.816 556 880.816 556 880.814 556 880.814 556L849.191 556ZM851.02 544.5C850.428 544.502 849.891 544.878 849.682 545.433L847.878 551.114C847.798 551.337 847.763 551.507 847.763 551.684 847.761 552.065 847.911 552.427 848.181 552.7 848.451 552.972 848.812 553.123 849.195 553.125L880.812 553.125C880.981 553.125 881.148 553.094 881.307 553.033 881.667 552.899 881.953 552.632 882.112 552.282 882.271 551.933 882.284 551.542 882.15 551.183L879.994 545.433C879.785 544.876 879.247 544.502 878.652 544.5L851.02 544.5Z"></path><path d="M862.129 550.25C861.335 550.25 860.691 549.606 860.691 548.812 860.691 548.019 861.335 547.375 862.129 547.375L867.879 547.375C868.672 547.375 869.316 548.019 869.316 548.812 869.316 549.606 868.672 550.25 867.879 550.25L862.129 550.25Z"></path><path d="M865.004 537.312C864.908 537.312 864.812 537.303 864.72 537.284 864.663 537.272 864.607 537.255 864.552 537.236 864.53 537.23 864.492 537.219 864.456 537.203 864.385 537.173 864.325 537.142 864.268 537.105 864.237 537.09 864.226 537.083 864.199 537.063 864.126 537.013 864.053 536.954 863.986 536.889L858.236 531.139C857.964 530.869 857.814 530.506 857.814 530.123 857.814 529.74 857.964 529.378 858.236 529.107 858.506 528.835 858.869 528.686 859.252 528.686 859.635 528.686 859.997 528.835 860.268 529.107L863.564 532.404 863.564 511.438C863.564 510.644 864.208 510 865.002 510 865.795 510 866.439 510.644 866.439 511.438L866.439 532.404 869.734 529.109C870.006 528.837 870.367 528.688 870.75 528.688 871.133 528.688 871.496 528.837 871.766 529.109 872.038 529.379 872.188 529.742 872.188 530.125 872.188 530.508 872.038 530.871 871.766 531.141 871.766 531.141 865.999 536.908 865.989 536.918 865.932 536.973 865.868 537.023 865.803 537.067 865.78 537.084 865.736 537.107 865.711 537.121 865.68 537.14 865.619 537.173 865.556 537.199 865.527 537.211 865.47 537.23 865.439 537.24 865.395 537.255 865.339 537.272 865.282 537.284 865.195 537.303 865.1 537.312 865.004 537.312Z"></path></g></g></g><g><g><g><path d="M710.812 558C710.019 558 709.375 557.356 709.375 556.562 709.375 555.769 710.019 555.125 710.812 555.125L716.562 555.125 716.562 550.812 702.188 550.812C699.809 550.812 697.875 548.879 697.875 546.5L697.875 527.812C697.875 525.434 699.809 523.5 702.188 523.5L707.938 523.5C708.731 523.5 709.375 524.144 709.375 524.938 709.375 525.731 708.731 526.375 707.938 526.375L702.188 526.375C701.394 526.375 700.75 527.019 700.75 527.812L700.75 542.188 735.25 542.188 735.25 527.812C735.25 527.019 734.606 526.375 733.812 526.375L728.062 526.375C727.269 526.375 726.625 525.731 726.625 524.938 726.625 524.144 727.269 523.5 728.062 523.5L733.812 523.5C736.191 523.5 738.125 525.434 738.125 527.812L738.125 546.5C738.125 548.879 736.191 550.812 733.812 550.812L719.438 550.812 719.438 555.125 725.188 555.125C725.981 555.125 726.625 555.769 726.625 556.562 726.625 557.356 725.981 558 725.188 558L710.812 558ZM700.75 546.5C700.75 547.294 701.394 547.938 702.188 547.938L733.812 547.938C734.606 547.938 735.25 547.294 735.25 546.5L735.25 545.062 700.75 545.062 700.75 546.5Z"></path><path d="M718 537.875C717.206 537.875 716.562 537.231 716.562 536.438L716.562 516.909 713.266 520.203C712.996 520.476 712.633 520.625 712.25 520.625 711.867 520.625 711.504 520.476 711.234 520.203 710.962 519.933 710.812 519.571 710.812 519.188 710.812 518.804 710.962 518.442 711.234 518.172L716.982 512.424C717.116 512.289 717.274 512.184 717.452 512.111 717.467 512.105 717.482 512.1 717.5 512.094 717.665 512.031 717.831 512 718 512 718.171 512 718.339 512.031 718.5 512.092 718.514 512.096 718.527 512.102 718.539 512.105 718.724 512.182 718.882 512.287 719.018 512.424L724.766 518.172C725.038 518.442 725.188 518.804 725.188 519.188 725.188 519.571 725.038 519.933 724.766 520.203 724.494 520.474 724.133 520.625 723.75 520.625 723.367 520.625 723.004 520.476 722.734 520.203L719.438 516.907 719.438 536.438C719.438 537.231 718.794 537.875 718 537.875Z"></path></g></g></g><g clip-path="url(#clip24)"><g clip-path="url(#clip25)"><g clip-path="url(#clip26)"><path d="M4.03125 18.8125C3.87179 18.8125 3.71412 18.7838 3.56362 18.7265 3.55108 18.7229 3.53854 18.7175 3.526 18.714 3.35221 18.6423 3.20529 18.5438 3.07987 18.4183L0.394167 15.7308C0.13975 15.4782 0 15.1396 0 14.7812 0 14.4229 0.13975 14.0843 0.394167 13.8317 0.646792 13.5772 0.985417 13.4375 1.34375 13.4375 1.70208 13.4375 2.04071 13.5772 2.29333 13.8317L2.6875 14.2258 2.6875 12.0938C2.6875 8.38858 5.70108 5.375 9.40625 5.375L11.5365 5.375 11.1442 4.98083C10.8897 4.72821 10.75 4.38958 10.75 4.03125 10.75 3.67292 10.8897 3.33429 11.1442 3.08167 11.3968 2.82725 11.7354 2.6875 12.0938 2.6875 12.4521 2.6875 12.7907 2.82725 13.0433 3.08167L15.7308 5.76917C15.8563 5.89458 15.9548 6.0415 16.0229 6.20812 16.03 6.22067 16.0354 6.23679 16.0408 6.25292 16.0963 6.407 16.125 6.56288 16.125 6.71875 16.125 6.87821 16.0963 7.03408 16.039 7.18638 16.0354 7.19892 16.03 7.21146 16.0265 7.224 15.9548 7.39779 15.8563 7.54471 15.729 7.67192L13.0433 10.3558C12.7907 10.6102 12.4521 10.75 12.0938 10.75 11.7354 10.75 11.3968 10.6102 11.1442 10.3558 10.8897 10.1032 10.75 9.76458 10.75 9.40625 10.75 9.04792 10.8897 8.70929 11.1442 8.45667L11.5383 8.0625 9.40625 8.0625C7.18279 8.0625 5.375 9.87029 5.375 12.0938L5.375 14.224 5.76917 13.8299C6.02179 13.5772 6.36042 13.4375 6.71875 13.4375 7.07708 13.4375 7.41571 13.5772 7.66833 13.8317 7.92275 14.0843 8.0625 14.4229 8.0625 14.7812 8.0625 15.1396 7.92275 15.4782 7.66833 15.7308L4.98262 18.4183C4.85721 18.5438 4.71029 18.6423 4.54367 18.7104 4.52933 18.7157 4.515 18.7211 4.49887 18.7265 4.34479 18.7838 4.18892 18.8125 4.03125 18.8125Z" transform="matrix(1 0 0 1.02326 705 385)"></path><path d="M8.0625 43C7.32075 43 6.71875 42.398 6.71875 41.6562 6.71875 40.9145 7.32075 40.3125 8.0625 40.3125L10.75 40.3125 10.75 37.625 4.03125 37.625C1.80779 37.625 0 35.8172 0 33.5938L0 25.5312C0 23.3078 1.80779 21.5 4.03125 21.5L20.1562 21.5C22.3797 21.5 24.1875 23.3078 24.1875 25.5312L24.1875 33.5938C24.1875 35.8172 22.3797 37.625 20.1562 37.625L13.4375 37.625 13.4375 40.3125 16.125 40.3125C16.8667 40.3125 17.4688 40.9145 17.4688 41.6562 17.4688 42.398 16.8667 43 16.125 43L8.0625 43ZM4.03125 24.1875C3.2895 24.1875 2.6875 24.7895 2.6875 25.5312L2.6875 33.5938C2.6875 34.3355 3.2895 34.9375 4.03125 34.9375L20.1562 34.9375C20.898 34.9375 21.5 34.3355 21.5 33.5938L21.5 25.5312C21.5 24.7895 20.898 24.1875 20.1562 24.1875L4.03125 24.1875Z" transform="matrix(1 0 0 1.02326 705 385)"></path><path d="M26.875 21.5C26.1332 21.5 25.5312 20.898 25.5312 20.1562 25.5312 19.4145 26.1332 18.8125 26.875 18.8125L29.5625 18.8125 29.5625 16.125 22.8438 16.125C20.6203 16.125 18.8125 14.3172 18.8125 12.0938L18.8125 4.03125C18.8125 1.80779 20.6203 0 22.8438 0L38.9688 0C41.1922 0 43 1.80779 43 4.03125L43 12.0938C43 14.3172 41.1922 16.125 38.9688 16.125L32.25 16.125 32.25 18.8125 34.9375 18.8125C35.6792 18.8125 36.2812 19.4145 36.2812 20.1562 36.2812 20.898 35.6792 21.5 34.9375 21.5L26.875 21.5ZM22.8438 2.6875C22.102 2.6875 21.5 3.2895 21.5 4.03125L21.5 12.0938C21.5 12.8355 22.102 13.4375 22.8438 13.4375L38.9688 13.4375C39.7105 13.4375 40.3125 12.8355 40.3125 12.0938L40.3125 4.03125C40.3125 3.2895 39.7105 2.6875 38.9688 2.6875L22.8438 2.6875Z" transform="matrix(1 0 0 1.02326 705 385)"></path></g></g></g></g></svg>