<svg width="1280" height="720" xmlns="http://www.w3.org/2000/svg" xmlns:xlink="http://www.w3.org/1999/xlink" overflow="hidden"><defs><clipPath id="clip0"><rect x="698" y="250" width="36" height="36"></rect></clipPath><clipPath id="clip1"><rect x="698" y="250" width="36" height="36"></rect></clipPath><clipPath id="clip2"><rect x="698" y="250" width="36" height="36"></rect></clipPath><clipPath id="clip3"><rect x="834" y="250" width="39" height="39"></rect></clipPath><clipPath id="clip4"><rect x="834" y="250" width="39" height="39"></rect></clipPath><clipPath id="clip5"><rect x="834" y="250" width="39" height="39"></rect></clipPath><clipPath id="clip6"><rect x="704" y="388" width="39" height="39"></rect></clipPath><clipPath id="clip7"><rect x="704" y="388" width="39" height="39"></rect></clipPath><clipPath id="clip8"><rect x="704" y="388" width="39" height="39"></rect></clipPath><clipPath id="clip9"><rect x="1130" y="253" width="35" height="36"></rect></clipPath><clipPath id="clip10"><rect x="1130" y="253" width="35" height="36"></rect></clipPath><clipPath id="clip11"><rect x="1130" y="253" width="35" height="36"></rect></clipPath><clipPath id="clip12"><rect x="842" y="384" width="44" height="45"></rect></clipPath><clipPath id="clip13"><rect x="842" y="384" width="44" height="45"></rect></clipPath><clipPath id="clip14"><rect x="842" y="384" width="44" height="45"></rect></clipPath><clipPath id="clip15"><rect x="556" y="257" width="39" height="39"></rect></clipPath><clipPath id="clip16"><rect x="556" y="257" width="39" height="39"></rect></clipPath><clipPath id="clip17"><rect x="556" y="257" width="39" height="39"></rect></clipPath><clipPath id="clip18"><rect x="854" y="519" width="36" height="36"></rect></clipPath><clipPath id="clip19"><rect x="854" y="519" width="36" height="36"></rect></clipPath><clipPath id="clip20"><rect x="854" y="519" width="36" height="36"></rect></clipPath><clipPath id="clip21"><rect x="992" y="519" width="36" height="36"></rect></clipPath><clipPath id="clip22"><rect x="992" y="519" width="36" height="36"></rect></clipPath><clipPath id="clip23"><rect x="992" y="519" width="36" height="36"></rect></clipPath><clipPath id="clip24"><rect x="1139" y="519" width="36" height="36"></rect></clipPath><clipPath id="clip25"><rect x="1139" y="519" width="36" height="36"></rect></clipPath><clipPath id="clip26"><rect x="1139" y="519" width="36" height="36"></rect></clipPath><clipPath id="clip27"><rect x="560" y="522" width="36" height="36"></rect></clipPath><clipPath id="clip28"><rect x="560" y="522" width="36" height="36"></rect></clipPath><clipPath id="clip29"><rect x="560" y="522" width="36" height="36"></rect></clipPath><clipPath id="clip30"><rect x="414" y="521" width="36" height="36"></rect></clipPath><clipPath id="clip31"><rect x="414" y="521" width="36" height="36"></rect></clipPath><clipPath id="clip32"><rect x="414" y="521" width="36" height="36"></rect></clipPath></defs><g><rect x="0" y="0" width="1280" height="720" fill="#FFFFFF"></rect><rect x="82" y="208" width="126" height="121" fill="#E9E9E9"></rect><rect x="82" y="481" width="126" height="121" fill="#E9E9E9"></rect><rect x="82" y="344" width="126" height="122" fill="#E9E9E9"></rect><rect x="225" y="208" width="126" height="121" fill="#E9E9E9"></rect><rect x="225" y="481" width="126" height="121" fill="#E9E9E9"></rect><rect x="225" y="344" width="126" height="122" fill="#E9E9E9"></rect><rect x="369" y="208" width="125" height="121" fill="#E9E9E9"></rect><rect x="369" y="481" width="125" height="121" fill="#E9E9E9"></rect><rect x="369" y="344" width="125" height="122" fill="#E9E9E9"></rect><rect x="512" y="208" width="126" height="121" fill="#E9E9E9"></rect><rect x="512" y="481" width="126" height="121" fill="#E9E9E9"></rect><rect x="512" y="344" width="126" height="122" fill="#E9E9E9"></rect><rect x="655" y="208" width="126" height="121" fill="#E9E9E9"></rect><rect x="655" y="481" width="126" height="121" fill="#E9E9E9"></rect><rect x="655" y="344" width="126" height="122" fill="#E9E9E9"></rect><rect x="799" y="208" width="125" height="121" fill="#E9E9E9"></rect><rect x="799" y="481" width="125" height="121" fill="#E9E9E9"></rect><rect x="799" y="344" width="125" height="122" fill="#E9E9E9"></rect><rect x="942" y="208" width="126" height="121" fill="#E9E9E9"></rect><rect x="942" y="481" width="126" height="121" fill="#E9E9E9"></rect><rect x="942" y="344" width="126" height="122" fill="#E9E9E9"></rect><rect x="1085" y="208" width="126" height="121" fill="#E9E9E9"></rect><rect x="1085" y="481" width="126" height="121" fill="#E9E9E9"></rect><rect x="1085" y="344" width="126" height="122" fill="#E9E9E9"></rect><text font-family="Calibri,Calibri_MSFontService,sans-serif" font-weight="700" font-size="45.3333" transform="translate(90.8308 113)">Other</text><g clip-path="url(#clip0)"><g clip-path="url(#clip1)"><g clip-path="url(#clip2)"><path d="M708.533 286.013C707.119 286.013 705.734 285.73 704.416 285.171 701.822 284.071 699.81 282.026 698.755 279.414 697.698 276.802 697.722 273.934 698.822 271.339 699.922 268.745 701.966 266.734 704.579 265.678 705.849 265.165 707.18 264.904 708.534 264.904 709.691 264.904 710.831 265.095 711.932 265.471L726.028 251.376C726.906 250.495 728.076 250.01 729.321 250.01 730.567 250.01 731.737 250.495 732.617 251.374 734.25 253.008 734.423 255.62 733.062 257.451L733.613 259.507C733.771 260.096 733.771 260.719 733.613 261.309 733.205 262.828 731.822 263.89 730.25 263.89L730.25 263.89C729.947 263.89 729.644 263.849 729.35 263.771L727.349 263.234 727.093 263.491 727.63 265.492C727.786 266.08 727.786 266.701 727.63 267.289 727.223 268.811 725.839 269.875 724.262 269.875 723.961 269.875 723.659 269.836 723.367 269.757L721.365 269.22 718.521 272.064C719.345 274.496 719.25 277.216 718.247 279.58 717.148 282.173 715.103 284.185 712.49 285.241 711.218 285.753 709.888 286.013 708.533 286.013ZM708.534 267.154C707.469 267.154 706.422 267.359 705.422 267.764 703.367 268.595 701.758 270.178 700.893 272.218 700.028 274.259 700.01 276.516 700.841 278.57 701.672 280.625 703.255 282.233 705.294 283.099 706.333 283.539 707.422 283.762 708.533 283.762 709.598 283.762 710.645 283.556 711.647 283.151 713.702 282.32 715.31 280.738 716.175 278.698 717.049 276.638 717.049 274.277 716.175 272.22 715.995 271.793 716.09 271.309 716.416 270.985L720.233 267.168C720.445 266.954 720.728 266.837 721.028 266.837 721.127 266.837 721.224 266.851 721.32 266.876L723.947 267.582C724.05 267.608 724.157 267.624 724.263 267.624 724.821 267.624 725.31 267.247 725.454 266.707 725.51 266.5 725.51 266.28 725.454 266.071L724.75 263.444C724.646 263.057 724.757 262.641 725.041 262.357L726.216 261.181C726.43 260.968 726.711 260.851 727.011 260.851 727.109 260.851 727.208 260.865 727.302 260.888L729.93 261.594C730.036 261.622 730.142 261.635 730.248 261.635 730.805 261.635 731.294 261.26 731.438 260.722 731.494 260.513 731.494 260.293 731.438 260.085L730.734 257.457C730.631 257.069 730.742 256.654 731.026 256.371 731.964 255.43 731.964 253.902 731.026 252.962 730.571 252.508 729.965 252.258 729.321 252.258 728.678 252.258 728.072 252.508 727.617 252.964L713.006 267.576C712.793 267.789 712.511 267.905 712.211 267.905 712.06 267.905 711.912 267.875 711.771 267.817 710.735 267.378 709.644 267.154 708.534 267.154Z"></path><path d="M706.867 280.608C704.946 280.608 703.385 279.046 703.385 277.126 703.385 275.206 704.946 273.645 706.867 273.645 708.786 273.645 710.348 275.206 710.348 277.126 710.348 279.046 708.786 280.608 706.867 280.608ZM706.867 275.895C706.187 275.895 705.635 276.447 705.635 277.126 705.635 277.806 706.187 278.358 706.867 278.358 707.546 278.358 708.098 277.806 708.098 277.126 708.098 276.447 707.544 275.895 706.867 275.895Z"></path></g></g></g><g><g><g><path d="M287 284.875C277.695 284.875 270.125 277.305 270.125 268 270.125 258.695 277.695 251.125 287 251.125 296.305 251.125 303.875 258.695 303.875 268 303.875 277.305 296.305 284.875 287 284.875ZM287 253.375C278.936 253.375 272.375 259.936 272.375 268 272.375 276.064 278.936 282.625 287 282.625 295.064 282.625 301.625 276.064 301.625 268 301.625 259.936 295.064 253.375 287 253.375Z"></path><path d="M292.625 274.75C292.325 274.75 292.042 274.633 291.83 274.42L288.455 271.045C288.002 271.263 287.507 271.375 287.001 271.375 285.14 271.375 283.626 269.862 283.626 268 283.626 266.56 284.549 265.288 285.876 264.819L285.876 257.875C285.876 257.254 286.38 256.75 287.001 256.75 287.622 256.75 288.126 257.254 288.126 257.875L288.126 264.819C289.454 265.289 290.376 266.561 290.376 268 290.376 268.507 290.264 269.002 290.047 269.453L293.422 272.828C293.859 273.267 293.859 273.98 293.422 274.42 293.208 274.633 292.925 274.75 292.625 274.75ZM287 266.875C286.379 266.875 285.875 267.379 285.875 268 285.875 268.621 286.379 269.125 287 269.125 287.621 269.125 288.125 268.621 288.125 268 288.125 267.379 287.621 266.875 287 266.875Z"></path></g></g></g><g><g><g><path d="M561.602 403.102C561.38 403.102 561.161 403.044 560.965 402.938 560.659 402.766 560.437 402.488 560.34 402.15 560.244 401.812 560.284 401.459 560.454 401.153 561.583 399.119 563.254 397.446 565.287 396.318 565.482 396.209 565.702 396.153 565.924 396.153 566.401 396.153 566.841 396.412 567.073 396.828 567.424 397.462 567.195 398.262 566.562 398.613 564.958 399.503 563.639 400.822 562.75 402.425 562.519 402.843 562.078 403.102 561.602 403.102Z"></path><path d="M556.625 401.771C556.504 401.771 556.383 401.753 556.266 401.72 555.57 401.522 555.166 400.794 555.363 400.099 556.573 395.84 559.838 392.573 564.097 391.362 564.215 391.328 564.336 391.311 564.456 391.311 565.039 391.311 565.559 391.703 565.718 392.264 565.814 392.602 565.774 392.957 565.602 393.264 565.433 393.57 565.153 393.79 564.815 393.887 561.438 394.848 558.847 397.438 557.887 400.817 557.727 401.377 557.209 401.771 556.625 401.771Z"></path><path d="M561.875 422.812C561.784 422.812 561.691 422.802 561.602 422.783 561.583 422.779 561.557 422.771 561.532 422.763 561.467 422.746 561.406 422.725 561.346 422.699 561.324 422.688 561.278 422.665 561.257 422.653 561.217 422.632 561.163 422.601 561.11 422.564 561.096 422.553 561.058 422.522 561.044 422.512 561 422.475 560.961 422.44 560.927 422.403 560.911 422.389 560.897 422.373 560.885 422.359 560.862 422.335 560.83 422.293 560.813 422.263 560.807 422.259 560.781 422.221 560.757 422.181 560.734 422.144 560.715 422.109 560.697 422.072 560.678 422.032 560.661 421.992 560.645 421.95 560.629 421.906 560.617 421.866 560.606 421.824 560.597 421.792 560.589 421.75 560.582 421.707 560.575 421.658 560.57 421.614 560.568 421.568 560.562 421.54 560.562 421.53 560.562 421.5 560.562 421.472 560.564 421.446 560.568 421.419 560.57 421.386 560.575 421.349 560.578 421.315 560.585 421.267 560.592 421.227 560.603 421.187 560.61 421.155 560.622 421.115 560.636 421.075 560.654 421.026 560.667 420.987 560.685 420.949 560.701 420.915 560.72 420.88 560.741 420.845 560.766 420.805 560.786 420.768 560.813 420.733 560.841 420.697 560.865 420.667 560.89 420.637 560.916 420.608 560.94 420.581 560.969 420.555 560.986 420.538 561.005 420.518 561.019 420.506 561.019 420.504 563.188 418.301 563.188 411.002 563.188 404.007 567.752 398.167 573.688 397.406L573.688 395.25C573.688 394.526 574.276 393.938 575 393.938 575.724 393.938 576.312 394.526 576.312 395.25L576.312 397.404C582.248 398.165 586.812 404.005 586.812 411 586.812 418.27 588.988 420.509 589.009 420.53 589.03 420.548 589.037 420.557 589.051 420.574 589.075 420.599 589.093 420.618 589.11 420.639 589.143 420.677 589.168 420.707 589.191 420.739 589.21 420.767 589.233 420.803 589.255 420.84 589.284 420.889 589.301 420.922 589.317 420.956 589.333 420.989 589.345 421.026 589.357 421.061 589.38 421.127 589.39 421.162 589.399 421.197 589.408 421.236 589.415 421.272 589.418 421.311 589.424 421.357 589.429 421.393 589.43 421.428 589.432 421.453 589.434 421.479 589.434 421.498 589.434 421.537 589.43 421.573 589.425 421.608 589.425 421.617 589.422 421.661 589.415 421.703 589.408 421.75 589.397 421.792 589.387 421.834 589.378 421.871 589.364 421.911 589.35 421.953 589.331 422.002 589.315 422.039 589.297 422.076 589.278 422.114 589.259 422.149 589.24 422.182 589.215 422.221 589.193 422.256 589.166 422.288 589.149 422.312 589.128 422.342 589.112 422.359 589.089 422.384 589.072 422.401 589.058 422.415 589.039 422.435 589.018 422.454 588.997 422.473 588.948 422.515 588.918 422.539 588.888 422.562 588.858 422.585 588.823 422.604 588.788 422.625 588.743 422.653 588.703 422.674 588.662 422.692 588.633 422.706 588.596 422.718 588.561 422.73 588.506 422.75 588.463 422.763 588.419 422.772 588.389 422.779 588.346 422.786 588.303 422.792 588.272 422.795 588.235 422.8 588.197 422.802 588.172 422.804 588.146 422.806 588.125 422.806L561.875 422.806ZM585.757 420.188C584.956 418.406 584.188 415.518 584.188 411 584.188 404.903 580.066 399.944 575 399.944 569.934 399.944 565.812 404.903 565.812 411 565.812 415.527 565.048 418.411 564.25 420.188L585.757 420.188Z"></path><path d="M575 430.688C572.828 430.688 571.062 428.922 571.062 426.75 571.062 426.026 571.651 425.438 572.375 425.438 573.099 425.438 573.688 426.026 573.688 426.75 573.688 427.474 574.276 428.062 575 428.062 575.724 428.062 576.312 427.474 576.312 426.75 576.312 426.026 576.901 425.438 577.625 425.438 578.349 425.438 578.938 426.026 578.938 426.75 578.938 428.92 577.172 430.688 575 430.688Z"></path><path d="M588.398 403.102C587.922 403.102 587.481 402.843 587.25 402.427 586.807 401.629 586.256 400.897 585.61 400.25 584.966 399.608 584.233 399.056 583.435 398.61 583.129 398.439 582.908 398.159 582.812 397.823 582.716 397.485 582.758 397.131 582.929 396.825 583.162 396.41 583.601 396.153 584.077 396.153 584.301 396.153 584.522 396.211 584.716 396.319 585.724 396.883 586.648 397.579 587.465 398.393 588.284 399.214 588.984 400.143 589.544 401.151 589.714 401.457 589.756 401.812 589.658 402.148 589.562 402.486 589.339 402.764 589.033 402.936 588.841 403.044 588.62 403.102 588.398 403.102Z"></path><path d="M593.375 401.771C592.792 401.771 592.273 401.379 592.113 400.817 591.153 397.438 588.562 394.848 585.185 393.887 584.489 393.689 584.084 392.961 584.282 392.264 584.441 391.703 584.959 391.311 585.544 391.311 585.666 391.311 585.787 391.328 585.904 391.362 590.162 392.573 593.427 395.838 594.638 400.098 594.836 400.794 594.43 401.52 593.734 401.718 593.617 401.753 593.496 401.771 593.375 401.771Z"></path></g></g></g><g><g><g><path d="M143.712 285.474C142.472 285.474 141.461 284.464 141.461 283.224L141.461 269.305C134.061 267.387 128.555 260.812 128.006 253.162 128.003 253.107 128 253.057 128 253.008 128 252.408 128.234 251.842 128.658 251.416 129.083 250.992 129.648 250.756 130.25 250.756L161.678 250.756C161.728 250.756 161.779 250.758 161.828 250.76 162.425 250.799 162.973 251.071 163.368 251.523 163.764 251.974 163.962 252.553 163.923 253.154 163.923 253.159 163.923 253.165 163.922 253.169 163.368 260.818 157.861 267.391 150.461 269.305L150.461 279.474C150.462 280.144 150.165 280.774 149.65 281.203L145.151 284.952C144.747 285.288 144.238 285.474 143.712 285.474 143.712 285.474 143.712 285.474 143.712 285.474ZM130.251 253.006C130.772 260.025 135.932 265.903 142.811 267.309 143.333 267.415 143.711 267.879 143.711 268.411L143.711 283.224 148.211 279.474 148.211 268.411C148.211 267.879 148.589 267.415 149.111 267.309 156.005 265.903 161.173 260.02 161.678 253.003L130.251 253.006Z"></path></g></g></g><g><g><g><path d="M135.775 422.781C133.889 422.781 132.288 421.309 132.132 419.427L129.973 393.531 127.438 393.531C126.765 393.531 126.219 392.985 126.219 392.312 126.219 391.64 126.765 391.094 127.438 391.094L137.188 391.094 137.188 389.875C137.188 387.858 138.827 386.219 140.844 386.219L148.156 386.219C150.173 386.219 151.812 387.858 151.812 389.875L151.812 391.094 161.562 391.094C162.235 391.094 162.781 391.64 162.781 392.312 162.781 392.985 162.235 393.531 161.562 393.531L159.027 393.531 156.87 419.429C156.714 421.309 155.113 422.781 153.226 422.781L135.775 422.781ZM134.56 419.226C134.612 419.853 135.145 420.344 135.775 420.344L153.226 420.344C153.855 420.344 154.39 419.853 154.44 419.226L156.582 393.531 132.418 393.531 134.56 419.226ZM149.375 391.094 149.375 389.875C149.375 389.202 148.829 388.656 148.156 388.656L140.844 388.656C140.171 388.656 139.625 389.202 139.625 389.875L139.625 391.094 149.375 391.094Z"></path><path d="M140.844 414.25C140.171 414.25 139.625 413.704 139.625 413.031L139.625 400.844C139.625 400.171 140.171 399.625 140.844 399.625 141.516 399.625 142.062 400.171 142.062 400.844L142.062 413.031C142.062 413.704 141.516 414.25 140.844 414.25Z"></path><path d="M148.156 414.25C147.484 414.25 146.938 413.704 146.938 413.031L146.938 400.844C146.938 400.171 147.484 399.625 148.156 399.625 148.829 399.625 149.375 400.171 149.375 400.844L149.375 413.031C149.375 413.704 148.829 414.25 148.156 414.25Z"></path></g></g></g><g><g><g><path d="M441.125 284.875C436.783 284.875 433.25 281.342 433.25 277L433.25 269.125 428.75 269.125 428.75 277C428.75 281.342 425.217 284.875 420.875 284.875 416.533 284.875 413 281.342 413 277 413 276.361 413.086 275.706 413.254 275.048 413.259 275.002 413.268 274.956 413.28 274.909L418.805 254.839C419.408 252.649 421.415 251.119 423.686 251.119 426.485 251.124 428.753 253.398 428.749 256.189L428.749 262.375 433.249 262.375 433.249 256.188C433.244 253.398 435.512 251.124 438.303 251.119 440.582 251.119 442.589 252.649 443.192 254.839L448.716 274.905C448.732 274.956 448.742 275.009 448.748 275.065 448.916 275.716 449 276.367 449 277 449 281.342 445.467 284.875 441.125 284.875ZM441.125 271.375C438.023 271.375 435.5 273.898 435.5 277 435.5 280.102 438.023 282.625 441.125 282.625 444.227 282.625 446.75 280.102 446.75 277 446.75 273.898 444.227 271.375 441.125 271.375ZM420.875 271.375C417.773 271.375 415.25 273.898 415.25 277 415.25 280.102 417.773 282.625 420.875 282.625 423.977 282.625 426.5 280.102 426.5 277 426.5 273.898 423.977 271.375 420.875 271.375ZM438.308 253.369C437.558 253.37 436.853 253.665 436.322 254.197 435.791 254.73 435.499 255.436 435.5 256.186L435.5 271.5C436.967 269.991 438.975 269.125 441.125 269.125 442.529 269.125 443.894 269.501 445.091 270.207L441.025 255.436C440.69 254.219 439.574 253.369 438.312 253.369L438.308 252.807 438.308 253.369ZM420.875 269.125C423.025 269.125 425.033 269.991 426.5 271.5L426.5 256.188C426.501 255.436 426.209 254.73 425.678 254.197 425.147 253.665 424.442 253.37 423.692 253.369 422.426 253.369 421.311 254.219 420.977 255.436L416.912 270.205C418.108 269.501 419.471 269.125 420.875 269.125ZM433.25 266.875 433.25 264.625 428.75 264.625 428.75 266.875 433.25 266.875Z"></path></g></g></g><g clip-path="url(#clip3)"><g clip-path="url(#clip4)"><g clip-path="url(#clip5)"><path d="M849.613 275.223C844.314 275.223 840.003 270.912 840.003 265.613 840.003 260.314 844.314 256.003 849.613 256.003 854.912 256.003 859.223 260.314 859.223 265.613 859.223 270.912 854.912 275.223 849.613 275.223ZM849.613 258.44C845.658 258.44 842.44 261.658 842.44 265.613 842.44 269.568 845.658 272.786 849.613 272.786 853.568 272.786 856.786 269.568 856.786 265.613 856.786 261.658 853.568 258.44 849.613 258.44Z"></path><path d="M868.793 289.01C867.665 289.01 866.607 288.571 865.811 287.775L857.257 279.221C854.924 280.535 852.301 281.228 849.637 281.228 848.544 281.228 847.442 281.111 846.36 280.882 842.283 280.015 838.786 277.612 836.516 274.113 831.829 266.893 833.89 257.208 841.108 252.522 843.64 250.878 846.569 250.01 849.582 250.01 854.906 250.01 859.808 252.665 862.696 257.114 865.839 261.955 866.027 268.239 863.214 273.255L871.773 281.811C872.569 282.607 873.008 283.667 873.008 284.793 873.008 285.921 872.568 286.979 871.773 287.775 870.979 288.571 869.919 289.01 868.793 289.01 868.793 289.01 868.793 289.01 868.793 289.01ZM857.441 276.463C857.766 276.463 858.073 276.59 858.304 276.821L867.534 286.051C867.87 286.387 868.317 286.572 868.793 286.572 869.267 286.572 869.716 286.387 870.051 286.051 870.385 285.714 870.572 285.267 870.572 284.791 870.572 284.317 870.387 283.868 870.051 283.534L860.873 274.359C860.765 274.264 860.676 274.152 860.608 274.026 860.393 273.631 860.413 273.155 860.655 272.779 863.481 268.424 863.481 262.795 860.653 258.44 858.737 255.489 855.788 253.461 852.346 252.73 851.433 252.535 850.502 252.438 849.579 252.438 847.05 252.438 844.579 253.174 842.434 254.566 839.489 256.479 837.463 259.43 836.73 262.875 835.997 266.32 836.647 269.84 838.56 272.786 840.476 275.737 843.425 277.765 846.867 278.496 847.78 278.691 848.711 278.789 849.636 278.789 852.164 278.789 854.634 278.052 856.779 276.66 856.976 276.531 857.205 276.463 857.441 276.463Z"></path></g></g></g><g clip-path="url(#clip6)"><g clip-path="url(#clip7)"><g clip-path="url(#clip8)"><path d="M712.536 422.933C710.255 422.933 708.113 422.047 706.504 420.438 704.895 418.829 704.01 416.688 704.01 414.406 704.01 412.125 704.895 409.983 706.504 408.374L714.26 400.616C715.869 399.004 718.014 398.116 720.299 398.116 722.577 398.116 724.717 399 726.324 400.604 729.318 403.59 729.685 408.241 727.198 411.66 726.971 411.974 726.602 412.162 726.212 412.162 725.952 412.162 725.705 412.081 725.495 411.928 725.234 411.738 725.06 411.455 725.01 411.133 724.959 410.812 725.036 410.49 725.227 410.227 727.003 407.784 726.742 404.463 724.603 402.329 723.455 401.184 721.927 400.552 720.299 400.552 718.666 400.552 717.135 401.187 715.984 402.337L708.227 410.095C705.851 412.471 705.851 416.337 708.227 418.712 709.375 419.861 710.906 420.493 712.536 420.493 714.166 420.493 715.697 419.861 716.846 418.712L718.36 417.198C718.591 416.967 718.896 416.84 719.221 416.84 719.546 416.84 719.854 416.967 720.083 417.198 720.313 417.429 720.44 417.734 720.44 418.059 720.44 418.384 720.313 418.691 720.083 418.921L718.568 420.435C716.961 422.047 714.818 422.933 712.536 422.933Z"></path><path d="M726.714 417.289C724.438 417.289 722.297 416.403 720.687 414.795 717.695 411.808 717.328 407.159 719.816 403.74 720.044 403.426 720.412 403.238 720.801 403.238 721.059 403.238 721.308 403.319 721.518 403.47 721.781 403.662 721.955 403.944 722.005 404.266 722.055 404.588 721.979 404.91 721.787 405.173 720.011 407.615 720.273 410.935 722.41 413.069 723.56 414.218 725.089 414.85 726.716 414.85 728.349 414.848 729.878 414.215 731.029 413.062L738.785 405.306C739.935 404.156 740.569 402.625 740.569 400.997 740.569 399.368 739.935 397.839 738.785 396.687 737.636 395.538 736.105 394.906 734.475 394.906 732.845 394.906 731.315 395.538 730.166 396.687L728.947 397.906C728.716 398.137 728.411 398.263 728.086 398.263 727.761 398.263 727.454 398.137 727.224 397.906 726.994 397.677 726.867 397.37 726.867 397.045 726.867 396.72 726.994 396.413 727.224 396.184L728.443 394.965C730.052 393.356 732.195 392.469 734.475 392.469 736.755 392.469 738.898 393.354 740.507 394.965 742.119 396.575 743.006 398.719 743.006 400.997 743.006 403.275 742.119 405.418 740.507 407.029L732.751 414.785C731.142 416.397 729.001 417.286 726.721 417.287L726.714 417.287Z"></path></g></g></g><g><g><g><path d="M1000.84 294C996.139 294 992.312 290.173 992.312 285.469L992.312 267.188C992.312 260.468 997.781 255 1004.5 255 1011.22 255 1016.69 260.468 1016.69 267.188L1016.69 280.592C1016.69 281.265 1016.14 281.811 1015.47 281.811 1014.8 281.811 1014.25 281.265 1014.25 280.592L1014.25 267.188C1014.25 261.812 1009.88 257.438 1004.5 257.438 999.125 257.438 994.75 261.812 994.75 267.188L994.75 285.469C994.75 288.829 997.483 291.562 1000.84 291.562 1004.2 291.562 1006.94 288.829 1006.94 285.469L1006.94 267.188C1006.94 265.844 1005.84 264.75 1004.5 264.75 1003.16 264.75 1002.06 265.844 1002.06 267.188L1002.06 283.031C1002.06 283.704 1001.52 284.25 1000.84 284.25 1000.17 284.25 999.625 283.704 999.625 283.031L999.625 267.188C999.625 264.5 1001.81 262.312 1004.5 262.312 1007.19 262.312 1009.38 264.5 1009.38 267.188L1009.38 285.469C1009.38 290.173 1005.55 294 1000.84 294Z"></path></g></g></g><g clip-path="url(#clip9)"><g clip-path="url(#clip10)"><g clip-path="url(#clip11)"><path d="M1.09375 34.9985C0.802083 34.9985 0.526458 34.8848 0.320833 34.6777 0.11375 34.4721 0 34.1965 0 33.9048 0 33.6131 0.11375 33.3375 0.320833 33.1319L17.4694 15.9833C16.0752 14.2392 15.3125 12.0794 15.3125 9.84229 15.3125 4.41437 19.7283-0.00145833 25.1562-0.00145833 30.5842-0.00145833 35 4.41437 35 9.84229 35 15.2702 30.5842 19.686 25.1562 19.686 22.9192 19.686 20.7594 18.9233 19.0167 17.5292L1.86667 34.6777C1.66104 34.8848 1.38542 34.9985 1.09375 34.9985ZM25.1562 2.18604C20.9344 2.18604 17.5 5.62042 17.5 9.84229 17.5 14.0642 20.9344 17.4985 25.1562 17.4985 29.3781 17.4985 32.8125 14.0642 32.8125 9.84229 32.8125 5.62042 29.3781 2.18604 25.1562 2.18604Z" transform="matrix(1 0 0 1.02857 1130 253)"></path><path d="M20.7812 12.0312C20.1775 12.0312 19.6875 11.5413 19.6875 10.9375 19.6875 9.18458 20.37 7.53667 21.6081 6.29708 22.8463 5.0575 24.4942 4.37354 26.2485 4.37354 26.5504 4.37354 26.7954 4.61854 26.7954 4.92042L26.7969 6.01417C26.7969 6.15854 26.74 6.29854 26.6365 6.40208 26.5344 6.50417 26.3944 6.5625 26.25 6.5625 25.0804 6.5625 23.9823 7.0175 23.1554 7.84438 22.33 8.66979 21.875 9.76792 21.875 10.9375 21.875 11.5398 21.385 12.0312 20.7812 12.0312Z" transform="matrix(1 0 0 1.02857 1130 253)"></path></g></g></g><g><g><g><path d="M288.5 405.493C287.827 405.493 287.281 404.948 287.281 404.275L287.281 388.431C287.281 387.758 287.827 387.212 288.5 387.212 289.173 387.212 289.719 387.758 289.719 388.431L289.719 404.275C289.719 404.946 289.173 405.493 288.5 405.493Z"></path><path d="M288.513 423.773C281.805 423.773 275.796 419.527 273.563 413.209 270.651 404.972 274.982 395.903 283.219 392.991 283.35 392.944 283.487 392.919 283.625 392.919 284.14 392.919 284.602 393.246 284.774 393.732 284.883 394.039 284.865 394.369 284.725 394.663 284.585 394.959 284.338 395.18 284.031 395.289 277.062 397.752 273.397 405.427 275.861 412.396 277.751 417.743 282.835 421.336 288.513 421.334 290.029 421.334 291.527 421.076 292.969 420.567 299.938 418.102 303.603 410.427 301.139 403.459 299.782 399.622 296.804 396.644 292.969 395.289 292.662 395.18 292.415 394.959 292.275 394.664 292.135 394.37 292.117 394.04 292.226 393.733 292.398 393.247 292.86 392.921 293.375 392.921 293.515 392.921 293.651 392.945 293.783 392.991 298.315 394.593 301.835 398.113 303.439 402.647 306.351 410.884 302.018 419.953 293.783 422.865 292.08 423.468 290.309 423.771 288.513 423.773 288.515 423.773 288.513 423.773 288.513 423.773Z"></path></g></g></g><g><g><g><path d="M432.75 423.5C432.282 423.5 431.823 423.368 431.427 423.12L424 418.475 416.575 423.115C416.177 423.363 415.72 423.495 415.253 423.495 415.063 423.495 414.873 423.473 414.687 423.43 414.035 423.278 413.482 422.883 413.128 422.317 412.883 421.922 412.752 421.468 412.75 421.005L412.75 393.25C412.75 388.425 416.675 384.5 421.5 384.5L436.5 384.5C441.325 384.5 445.25 388.425 445.25 393.25L445.25 399.5C445.25 400.878 444.128 402 442.75 402L435.25 402 435.25 421C435.25 421.668 434.99 422.295 434.517 422.768 434.045 423.24 433.417 423.5 432.75 423.5L432.75 423.5ZM424 415.75C424.235 415.75 424.465 415.817 424.663 415.94L432.752 421 432.75 393.25C432.75 391.182 434.432 389.5 436.5 389.5 437.19 389.5 437.75 390.06 437.75 390.75 437.75 391.44 437.19 392 436.5 392 435.81 392 435.25 392.56 435.25 393.25L435.25 399.5 442.75 399.5 442.75 393.25C442.75 389.803 439.947 387 436.5 387L421.5 387C418.053 387 415.25 389.803 415.25 393.25L415.25 421 423.338 415.94C423.537 415.815 423.767 415.75 424 415.75Z"></path></g></g></g><g clip-path="url(#clip12)"><g clip-path="url(#clip13)"><g clip-path="url(#clip14)"><path d="M4.1305 41.25C3.02867 41.25 1.99283 40.821 1.21367 40.0418 0.4345 39.2627 0.0055 38.2268 0.0055 37.125 0.0055 36.487 0.155833 35.849 0.441833 35.2788 0.462 35.2385 0.484 35.2 0.507833 35.1615L3.839 29.8613C4.4055 28.7577 5.25983 27.83 6.29567 27.1755 5.78417 26.477 5.50183 25.63 5.50183 24.75L5.50183 8.25C5.50183 5.97483 7.35167 4.125 9.62683 4.125 10.3858 4.125 11.0018 4.741 11.0018 5.5 11.0018 6.259 10.3858 6.875 9.62683 6.875 8.86783 6.875 8.25183 7.491 8.25183 8.25L8.25183 24.75C8.25183 25.509 8.86783 26.125 9.62683 26.125L34.3768 26.125C35.1358 26.125 35.7518 25.509 35.7518 24.75L35.7518 8.25C35.7518 7.491 35.1358 6.875 34.3768 6.875 33.6178 6.875 33.0018 6.259 33.0018 5.5 33.0018 4.741 33.6178 4.125 34.3768 4.125 36.652 4.125 38.5018 5.97483 38.5018 8.25L38.5018 24.75C38.5018 25.63 38.2195 26.477 37.7098 27.1755 38.7457 27.8282 39.6 28.7577 40.1665 29.8613L43.4995 35.1633C43.5197 35.1945 43.5417 35.233 43.5618 35.2752 44.0568 36.267 44.1375 37.3853 43.7892 38.4303 43.4408 39.4753 42.7075 40.3223 41.7212 40.8155 41.151 41.0997 40.513 41.2518 39.875 41.2518L4.1305 41.2518ZM2.8765 36.5603C2.79767 36.7363 2.7555 36.9307 2.7555 37.125 2.7555 37.4917 2.8985 37.8382 3.15883 38.0985 3.41733 38.357 3.762 38.5 4.1305 38.5L39.8732 38.5C40.0858 38.5 40.2985 38.4505 40.4892 38.3552 40.8173 38.1902 41.063 37.9078 41.1785 37.5595 41.2885 37.2295 41.2702 36.8757 41.1272 36.5603L37.8033 31.2712C37.7832 31.24 37.7612 31.2015 37.741 31.1593 37.0352 29.7477 35.6217 28.875 34.0487 28.875L9.955 28.875C8.382 28.875 6.9685 29.7495 6.26633 31.1538 6.248 31.1905 6.226 31.2308 6.20033 31.2712L2.8765 36.5603Z" transform="matrix(1 0 0 1.02273 842 384)"></path><path d="M19.2518 35.75C18.4928 35.75 17.8768 35.134 17.8768 34.375 17.8768 33.616 18.4947 33 19.2518 33L24.7518 33C25.5108 33 26.1268 33.616 26.1268 34.375 26.1268 35.134 25.5108 35.75 24.7518 35.75L19.2518 35.75Z" transform="matrix(1 0 0 1.02273 842 384)"></path><path d="M16.2415 23.375C15.1012 23.3713 14.069 22.6545 13.6712 21.5893L11.275 15.1965C11.1027 14.7363 11.0147 14.2542 11.0128 13.7628 11.0073 11.7957 12.43 10.0925 14.322 9.7075L16.7603 3.6135C16.9693 3.08917 17.4698 2.75 18.0363 2.75 18.2123 2.75 18.3828 2.783 18.5478 2.849 18.8888 2.98467 19.1565 3.24683 19.3013 3.58417 19.4462 3.9215 19.4498 4.2955 19.3142 4.6365L17.3177 9.625 27.005 9.625 25.0103 4.6365C24.8747 4.2955 24.8783 3.9215 25.0232 3.58417 25.168 3.24683 25.4357 2.98467 25.7767 2.849 25.938 2.783 26.1103 2.75 26.2863 2.75 26.8528 2.75 27.3533 3.08917 27.5642 3.61533L30.0007 9.70567C30.217 9.74967 30.4315 9.81017 30.6405 9.88717 32.7708 10.6847 33.8543 13.0662 33.0568 15.1965L30.6588 21.5893C30.261 22.6545 29.2288 23.3713 28.0922 23.375 28.0903 23.375 16.2415 23.375 16.2415 23.375ZM15.1305 12.375C14.3733 12.3768 13.761 12.9965 13.7628 13.7537 13.7628 13.9168 13.7922 14.0782 13.8508 14.2322L16.247 20.6232 28.0885 20.6232 30.4828 14.2303C30.6112 13.8875 30.5983 13.5153 30.4462 13.1798 30.294 12.8443 30.0208 12.5895 29.678 12.4612 29.524 12.4025 29.3608 12.3732 29.1958 12.3732L15.1305 12.3732Z" transform="matrix(1 0 0 1.02273 842 384)"></path><path d="M19.2518 19.25C18.4928 19.25 17.8768 18.634 17.8768 17.875L17.8768 15.125C17.8768 14.366 18.4928 13.75 19.2518 13.75 20.0108 13.75 20.6268 14.366 20.6268 15.125L20.6268 17.875C20.6268 18.6322 20.0108 19.25 19.2518 19.25Z" transform="matrix(1 0 0 1.02273 842 384)"></path><path d="M24.7518 19.25C23.9928 19.25 23.3768 18.634 23.3768 17.875L23.3768 15.125C23.3768 14.366 23.9928 13.75 24.7518 13.75 25.5108 13.75 26.1268 14.366 26.1268 15.125L26.1268 17.875C26.1268 18.6322 25.5108 19.25 24.7518 19.25Z" transform="matrix(1 0 0 1.02273 842 384)"></path></g></g></g><g><g><g><path d="M994.75 416.812C994.25 416.812 993.804 416.512 993.619 416.046L991.094 409.734 991.094 415.594C991.094 416.267 990.548 416.812 989.875 416.812 989.202 416.812 988.656 416.267 988.656 415.594L988.656 403.406C988.656 402.823 989.072 402.321 989.644 402.21 989.724 402.194 989.799 402.188 989.873 402.188 990.375 402.188 990.821 402.488 991.008 402.953L993.533 409.264 993.533 403.406C993.531 402.733 994.077 402.188 994.75 402.188 995.423 402.188 995.969 402.733 995.969 403.406L995.969 415.594C995.969 416.177 995.553 416.681 994.981 416.79 994.904 416.806 994.826 416.812 994.75 416.812Z"></path><path d="M1002.06 416.812C1000.05 416.812 998.406 415.173 998.406 413.156L998.406 405.844C998.406 403.827 1000.05 402.188 1002.06 402.188L1004.5 402.188C1005.17 402.188 1005.72 402.733 1005.72 403.406 1005.72 404.079 1005.17 404.625 1004.5 404.625L1002.06 404.625C1001.39 404.625 1000.84 405.171 1000.84 405.844L1000.84 409.5 1004.5 409.5C1005.17 409.5 1005.72 410.046 1005.72 410.719 1005.72 411.392 1005.17 411.938 1004.5 411.938L1000.84 411.938 1000.84 413.156C1000.84 413.829 1001.39 414.375 1002.06 414.375L1004.5 414.375C1005.17 414.375 1005.72 414.921 1005.72 415.594 1005.72 416.267 1005.17 416.812 1004.5 416.812L1002.06 416.812Z"></path><path d="M1016.63 416.811C1016.11 416.785 1015.66 416.431 1015.52 415.928L1014.25 411.499 1012.98 415.928C1012.84 416.431 1012.39 416.785 1011.87 416.811 1011.86 416.811 1011.83 416.812 1011.82 416.812 1011.32 416.812 1010.87 416.505 1010.68 416.047L1009.29 412.568C1008.54 410.69 1008.16 408.71 1008.16 406.685L1008.16 403.406C1008.16 402.733 1008.7 402.188 1009.38 402.188 1010.05 402.188 1010.59 402.733 1010.59 403.406L1010.59 406.684C1010.59 408.397 1010.92 410.072 1011.55 411.661L1011.62 411.83 1013.08 406.728C1013.23 406.208 1013.71 405.844 1014.25 405.844 1014.79 405.844 1015.27 406.208 1015.42 406.728L1016.88 411.83 1016.95 411.663C1017.58 410.072 1017.91 408.397 1017.91 406.684L1017.91 403.406C1017.91 402.733 1018.45 402.188 1019.12 402.188 1019.8 402.188 1020.34 402.733 1020.34 403.406L1020.34 406.684C1020.34 408.709 1019.96 410.688 1019.21 412.568L1017.82 416.047C1017.63 416.512 1017.19 416.812 1016.69 416.812 1016.68 416.812 1016.64 416.812 1016.63 416.811Z"></path><path d="M988.656 429C986.64 429 985 427.36 985 425.344L985 420.469C985 419.796 985.546 419.25 986.219 419.25 986.891 419.25 987.438 419.796 987.438 420.469L987.438 425.344C987.438 426.017 987.984 426.562 988.656 426.562L1020.34 426.562C1021.02 426.562 1021.56 426.017 1021.56 425.344L1021.56 420.469C1021.56 419.796 1022.11 419.25 1022.78 419.25 1023.45 419.25 1024 419.796 1024 420.469L1024 425.344C1024 427.36 1022.36 429 1020.34 429L988.656 429Z"></path><path d="M1022.78 399.75C1022.11 399.75 1021.56 399.204 1021.56 398.531L1021.56 393.656C1021.56 392.983 1021.02 392.438 1020.34 392.438L988.656 392.438C987.984 392.438 987.438 392.983 987.438 393.656L987.438 398.531C987.438 399.204 986.891 399.75 986.219 399.75 985.546 399.75 985 399.204 985 398.531L985 393.656C985 391.64 986.64 390 988.656 390L1020.34 390C1022.36 390 1024 391.64 1024 393.656L1024 398.531C1024 399.204 1023.45 399.75 1022.78 399.75Z"></path></g></g></g><g clip-path="url(#clip15)"><g clip-path="url(#clip16)"><g clip-path="url(#clip17)"><path d="M564.595 296.01C563.314 296.01 562.071 295.727 560.901 295.17 560.544 295.001 560.292 294.666 560.223 294.276 560.157 293.886 560.284 293.486 560.563 293.207L562.877 290.896C563.111 290.662 563.241 290.35 563.241 290.017 563.241 289.684 563.113 289.372 562.877 289.136 562.643 288.902 562.329 288.772 561.996 288.772 561.663 288.772 561.351 288.9 561.115 289.136L558.8 291.45C558.571 291.679 558.264 291.806 557.939 291.806 557.87 291.806 557.802 291.801 557.734 291.788 557.344 291.72 557.009 291.468 556.84 291.11 555.716 288.754 555.716 286.05 556.84 283.692 557.831 281.616 559.572 280.049 561.74 279.282 562.672 278.952 563.641 278.785 564.619 278.785 565.609 278.785 566.58 278.954 567.513 279.29L578.29 268.515C577.525 266.37 577.642 263.991 578.625 261.921 580.045 258.937 583.103 257.008 586.415 257.008 587.697 257.008 588.937 257.289 590.102 257.842 590.458 258.011 590.712 258.345 590.78 258.736 590.846 259.125 590.72 259.525 590.44 259.805L588.126 262.12C587.64 262.606 587.64 263.396 588.126 263.88 588.36 264.114 588.674 264.244 589.007 264.244 589.34 264.244 589.652 264.116 589.888 263.88L592.202 261.56C592.429 261.332 592.743 261.201 593.063 261.201 593.133 261.201 593.203 261.207 593.274 261.219 593.661 261.285 593.994 261.537 594.165 261.895 595.289 264.252 595.289 266.956 594.165 269.313 593.174 271.389 591.435 272.956 589.265 273.723 588.333 274.053 587.364 274.22 586.388 274.22L586.388 274.22C585.399 274.22 584.428 274.051 583.493 273.715L572.716 284.493C573.482 286.637 573.366 289.017 572.382 291.088 571.394 293.164 569.655 294.732 567.487 295.503 566.548 295.842 565.576 296.01 564.595 296.01ZM563.712 293.507C564.005 293.549 564.299 293.572 564.595 293.572 565.297 293.572 565.995 293.45 566.667 293.213 568.22 292.661 569.466 291.536 570.175 290.046 570.978 288.359 570.978 286.424 570.173 284.737 569.952 284.272 570.047 283.715 570.412 283.351L582.341 271.42C582.572 271.19 582.878 271.063 583.204 271.063 583.385 271.063 583.565 271.103 583.727 271.181 584.571 271.583 585.463 271.788 586.383 271.788 587.083 271.788 587.779 271.667 588.448 271.43 590.003 270.879 591.251 269.756 591.961 268.268 592.496 267.146 592.68 265.915 592.501 264.712L591.609 265.606C590.913 266.302 589.987 266.683 589.002 266.683 588.017 266.683 587.093 266.302 586.399 265.606 584.962 264.171 584.962 261.834 586.399 260.4L587.286 259.511C586.997 259.468 586.703 259.447 586.409 259.447 584.033 259.447 581.839 260.83 580.822 262.969 580.019 264.655 580.021 266.591 580.823 268.277 581.044 268.744 580.949 269.3 580.585 269.664L568.656 281.591C568.426 281.822 568.119 281.949 567.794 281.949 567.614 281.949 567.432 281.906 567.268 281.828 566.426 281.427 565.534 281.224 564.614 281.224 563.914 281.224 563.22 281.344 562.549 281.581 560.994 282.132 559.747 283.255 559.037 284.744 558.501 285.865 558.319 287.1 558.498 288.304L559.391 287.412C560.085 286.718 561.01 286.336 561.995 286.336 562.979 286.336 563.904 286.718 564.598 287.414 566.034 288.85 566.034 291.185 564.598 292.622L563.712 293.507Z"></path></g></g></g><g><g><g><path d="M1154 420C1151.21 420 1148.91 418.004 1148.46 415.328L1146.12 416.262 1146.12 418.875C1146.12 419.496 1145.62 420 1145 420 1144.38 420 1143.88 419.496 1143.88 418.875L1143.88 415.5C1143.88 415.036 1144.15 414.627 1144.58 414.456L1148.26 412.984C1148.46 412.905 1148.66 412.807 1148.88 412.688 1148.93 412.655 1148.99 412.625 1149.04 412.599 1149.77 412.168 1150.38 411.591 1150.85 410.882L1153.32 407.181C1153.59 406.767 1153.59 406.232 1153.32 405.818L1153.28 405.765C1153.08 405.501 1152.8 405.332 1152.47 405.285 1152.41 405.276 1152.35 405.271 1152.29 405.271 1152.02 405.271 1151.77 405.357 1151.56 405.517L1149.05 407.4C1148.85 407.547 1148.62 407.625 1148.38 407.625 1148.02 407.625 1147.69 407.457 1147.48 407.175 1147.3 406.934 1147.22 406.638 1147.26 406.341 1147.3 406.044 1147.46 405.78 1147.7 405.6L1148.38 405.095 1148.38 400.331 1144.54 401.97C1143.21 402.542 1142.16 403.591 1141.59 404.925L1139.83 409.041C1139.53 409.746 1139.37 410.493 1139.37 411.259L1139.37 418.874C1139.38 419.496 1138.87 420 1138.25 420 1137.63 420 1137.12 419.496 1137.12 418.875L1137.12 411.261C1137.12 410.187 1137.34 409.143 1137.76 408.156L1139.52 404.04C1140.32 402.172 1141.79 400.703 1143.66 399.903L1148.38 397.883 1148.38 389.625C1148.38 386.523 1150.9 384 1154 384L1165.25 384C1168.35 384 1170.88 386.523 1170.88 389.625L1170.88 414.375C1170.88 417.477 1168.35 420 1165.25 420L1154 420ZM1150.62 414.375C1150.62 416.237 1152.14 417.75 1154 417.75L1165.25 417.75C1167.11 417.75 1168.62 416.237 1168.62 414.375L1168.62 413.25 1151.82 413.25C1151.46 413.619 1151.06 413.953 1150.62 414.252L1150.62 414.375ZM1168.62 411 1168.62 389.625C1168.62 387.763 1167.11 386.25 1165.25 386.25L1154 386.25C1152.14 386.25 1150.62 387.763 1150.62 389.625L1150.62 403.449C1151.14 403.168 1151.7 403.021 1152.29 403.021 1152.46 403.021 1152.63 403.034 1152.79 403.057 1153.71 403.19 1154.53 403.671 1155.08 404.417 1155.12 404.466 1155.15 404.516 1155.19 404.566 1155.97 405.742 1155.97 407.258 1155.19 408.429L1153.48 411 1168.62 411Z"></path></g></g></g><g clip-path="url(#clip18)"><g clip-path="url(#clip19)"><g clip-path="url(#clip20)"><path d="M857.373 555C855.512 555 853.998 553.487 853.998 551.625L853.998 528C853.998 526.138 855.512 524.625 857.373 524.625L877.623 524.625 877.623 520.516C877.623 519.549 878.261 519.195 878.458 519.109 878.571 519.06 878.758 519 878.989 519 879.251 519 879.65 519.078 880.055 519.453L889.234 528.555C889.247 528.565 889.26 528.578 889.274 528.589 889.319 528.631 889.358 528.67 889.396 528.711 889.807 529.154 890.02 529.728 889.997 530.33 889.974 530.931 889.719 531.487 889.279 531.896L880.083 541.018C879.656 541.417 879.251 541.498 878.985 541.498L878.985 541.498C878.758 541.498 878.575 541.44 878.461 541.391 878.264 541.305 877.623 540.951 877.623 539.984L877.623 535.875 865.248 535.875C864.628 535.875 864.123 536.379 864.123 537L864.123 551.625C864.123 553.487 862.61 555 860.748 555L857.373 555ZM857.373 526.875C856.753 526.875 856.248 527.379 856.248 528L856.248 551.625C856.248 552.246 856.753 552.75 857.373 552.75L860.748 552.75C861.37 552.75 861.873 552.246 861.873 551.625L861.873 537C861.873 535.138 863.387 533.625 865.248 533.625L878.748 533.625C879.37 533.625 879.873 534.129 879.873 534.75L879.873 538.059 887.723 530.273C887.723 530.273 887.738 530.256 887.744 530.247 887.738 530.241 879.873 522.443 879.873 522.443L879.873 525.75C879.873 526.371 879.37 526.875 878.748 526.875L857.373 526.875Z"></path></g></g></g><g clip-path="url(#clip21)"><g clip-path="url(#clip22)"><g clip-path="url(#clip23)"><path d="M1021.25 555.002C1019.39 555.002 1017.88 553.488 1017.88 551.627L1017.88 537.002C1017.88 536.38 1017.37 535.877 1016.75 535.877L1004.38 535.877 1004.38 539.985C1004.38 540.953 1003.74 541.307 1003.54 541.392 1003.43 541.442 1003.24 541.502 1003.01 541.502 1002.74 541.502 1002.35 541.422 1001.94 541.045L992.692 531.875C992.279 531.494 992.023 530.928 992 530.336 991.977 529.735 992.19 529.161 992.599 528.721 992.633 528.682 992.672 528.645 992.713 528.606 992.717 528.602 992.729 528.591 992.741 528.581L1001.91 519.483C1002.34 519.084 1002.75 519.003 1003.01 519.003 1003.24 519.003 1003.43 519.062 1003.54 519.111 1003.74 519.198 1004.38 519.552 1004.38 520.518L1004.38 524.627 1024.62 524.627C1026.49 524.627 1028 526.14 1028 528.002L1028 551.627C1028 553.488 1026.49 555.002 1024.62 555.002L1021.25 555.002ZM1016.75 533.627C1018.61 533.627 1020.12 535.14 1020.12 537.002L1020.12 551.627C1020.12 552.247 1020.63 552.752 1021.25 552.752L1024.62 552.752C1025.25 552.752 1025.75 552.247 1025.75 551.627L1025.75 528.002C1025.75 527.38 1025.25 526.877 1024.62 526.877L1003.25 526.877C1002.63 526.877 1002.12 526.372 1002.12 525.752L1002.12 522.443C1002.12 522.443 994.253 530.25 994.241 530.26L1002.12 538.062 1002.12 534.752C1002.12 534.13 1002.63 533.627 1003.25 533.627L1016.75 533.627Z"></path></g></g></g><g clip-path="url(#clip24)"><g clip-path="url(#clip25)"><g clip-path="url(#clip26)"><path d="M1154.19 555C1150.77 555 1148 552.224 1148 548.812L1148 524.625C1148 522.763 1146.48 521.25 1144.62 521.25L1140.12 521.25C1139.5 521.25 1139 520.746 1139 520.125 1139 519.504 1139.5 519 1140.12 519L1144.62 519C1147.73 519 1150.25 521.523 1150.25 524.625L1150.25 548.812C1150.25 550.984 1152.02 552.75 1154.19 552.75 1156.36 552.75 1158.12 550.984 1158.12 548.812L1158.12 525.188C1158.12 521.775 1160.9 519 1164.31 519 1167.72 519 1170.5 521.775 1170.5 525.188L1170.5 538.293 1173 535.173C1173.21 534.904 1173.53 534.752 1173.88 534.752 1174.13 534.752 1174.38 534.839 1174.58 534.997 1175.06 535.386 1175.14 536.096 1174.75 536.578L1170.25 542.203C1170.24 542.22 1170.22 542.242 1170.2 542.262 1170.17 542.292 1170.14 542.319 1170.12 542.344 1170.08 542.373 1170.06 542.39 1170.04 542.404 1170 542.433 1169.96 542.458 1169.92 542.482 1169.89 542.499 1169.86 542.514 1169.84 542.526 1169.79 542.545 1169.74 542.565 1169.68 542.581 1169.67 542.584 1169.63 542.598 1169.61 542.599 1169.53 542.617 1169.45 542.627 1169.38 542.627 1169.3 542.627 1169.22 542.617 1169.14 542.599 1169.11 542.595 1169.07 542.583 1169.05 542.576 1169.01 542.563 1168.96 542.545 1168.91 542.521 1168.89 542.516 1168.85 542.492 1168.83 542.484 1168.79 542.458 1168.74 542.433 1168.71 542.403 1168.68 542.385 1168.66 542.365 1168.63 542.343 1168.61 542.319 1168.58 542.291 1168.55 542.259 1168.53 542.24 1168.51 542.217 1168.49 542.199L1164 536.577C1163.61 536.093 1163.69 535.383 1164.17 534.996 1164.37 534.837 1164.62 534.75 1164.88 534.75 1165.22 534.75 1165.54 534.904 1165.76 535.173L1168.25 538.293 1168.25 525.188C1168.25 523.017 1166.49 521.25 1164.31 521.25 1162.14 521.25 1160.38 523.017 1160.38 525.188L1160.38 548.812C1160.37 552.224 1157.6 555 1154.19 555Z"></path></g></g></g><g clip-path="url(#clip27)"><g clip-path="url(#clip28)"><g clip-path="url(#clip29)"><path d="M581.161 555.437C579.961 555.437 578.831 554.969 577.981 554.121 577.131 553.273 576.662 552.143 576.662 550.94 576.662 549.737 577.127 548.605 577.976 547.756L580.637 545.093 564.5 545.093C562.019 545.093 560 543.073 560 540.593 560 538.112 562.019 536.093 564.5 536.093L580.64 536.093 577.981 533.433C576.226 531.678 576.226 528.823 577.981 527.068 578.831 526.218 579.961 525.75 581.162 525.75 582.364 525.75 583.495 526.218 584.344 527.068L594.685 537.409C595.535 538.26 596.003 539.39 596.003 540.591 596.003 541.792 595.535 542.924 594.685 543.773L584.344 554.115C583.499 554.961 582.375 555.429 581.18 555.435 581.175 555.437 581.168 555.437 581.161 555.437ZM564.5 538.341C563.26 538.341 562.25 539.351 562.25 540.591 562.25 541.831 563.26 542.841 564.5 542.841L583.352 542.841C583.808 542.841 584.216 543.114 584.391 543.536 584.565 543.957 584.471 544.438 584.148 544.761L579.569 549.345C578.693 550.222 578.693 551.651 579.57 552.528 579.992 552.948 580.55 553.182 581.146 553.187 581.151 553.187 581.157 553.187 581.164 553.187 581.763 553.187 582.329 552.953 582.753 552.526L593.094 542.184C593.519 541.76 593.753 541.194 593.753 540.593 593.753 539.991 593.519 539.427 593.094 539.001L582.755 528.66C582.331 528.234 581.765 528 581.164 528 580.562 528 579.998 528.234 579.572 528.659 578.695 529.536 578.695 530.963 579.572 531.84L584.151 536.419C584.474 536.742 584.57 537.224 584.396 537.646 584.221 538.068 583.812 538.341 583.357 538.341L564.5 538.341Z"></path></g></g></g><g><g><g><path d="M718.836 553.435C717.633 553.435 716.504 552.966 715.655 552.114L705.318 541.768C704.468 540.919 704 539.788 704 538.586 704 537.385 704.468 536.254 705.318 535.405L715.655 525.068C716.501 524.221 717.626 523.753 718.825 523.748 718.829 523.748 718.835 523.748 718.839 523.748 720.041 523.748 721.17 524.216 722.021 525.065 722.872 525.916 723.341 527.045 723.341 528.248 723.341 529.451 722.875 530.581 722.024 531.432L719.365 534.091 735.5 534.091C737.981 534.091 740 536.11 740 538.591 740 539.799 739.531 540.928 738.68 541.777 737.831 542.625 736.703 543.091 735.503 543.091L719.362 543.091 722.023 545.755C722.872 546.605 723.339 547.737 723.338 548.94 723.336 550.143 722.869 551.272 722.018 552.121 721.169 552.97 720.039 553.437 718.838 553.437L718.836 553.437ZM718.838 525.998C718.237 525.998 717.671 526.232 717.247 526.659L706.909 536.995C706.484 537.421 706.25 537.985 706.25 538.586 706.25 539.188 706.484 539.752 706.909 540.178L717.245 550.525C717.669 550.951 718.235 551.185 718.836 551.187 719.438 551.187 720.003 550.953 720.428 550.528 720.854 550.104 721.088 549.538 721.088 548.938 721.088 548.336 720.854 547.771 720.43 547.345L715.85 542.761C715.528 542.437 715.432 541.956 715.607 541.536 715.782 541.114 716.19 540.841 716.646 540.841L735.5 540.841C736.103 540.841 736.667 540.607 737.09 540.184 737.515 539.76 737.748 539.195 737.75 538.596 737.75 538.596 737.75 538.591 737.75 538.591 737.75 537.351 736.74 536.341 735.5 536.341L716.648 536.341C716.19 536.341 715.782 536.068 715.609 535.646 715.433 535.225 715.529 534.744 715.853 534.421L720.432 529.841C720.857 529.417 721.091 528.852 721.091 528.248 721.091 527.647 720.857 527.081 720.431 526.657 720.005 526.232 719.44 525.998 718.838 525.998L718.838 525.436 718.838 525.998Z"></path></g></g></g><g><g><g><path d="M294.689 557.875C291.296 557.875 288.147 556.19 286.264 553.369L280.789 545.156C280.017 544 280.017 542.505 280.789 541.348 280.845 541.264 280.904 541.185 280.966 541.107 281.621 540.289 282.599 539.821 283.65 539.821 284.426 539.821 285.186 540.088 285.792 540.573L287.622 542.036 287.622 527.5C287.622 525.638 289.135 524.125 290.997 524.125 292.858 524.125 294.372 525.638 294.372 527.5L294.372 534.442C294.729 534.316 295.108 534.25 295.497 534.25 296.329 534.25 297.133 534.565 297.747 535.112 298.361 534.565 299.164 534.25 299.997 534.25 301.158 534.25 302.229 534.856 302.841 535.81 303.344 535.526 303.912 535.375 304.497 535.375 306.358 535.375 307.872 536.888 307.872 538.75L307.872 549.068C307.872 551.421 306.956 553.631 305.292 555.295 303.63 556.958 301.419 557.875 299.067 557.875L294.689 557.875ZM283.65 542.07C283.605 542.07 283.561 542.073 283.517 542.077 283.203 542.112 282.921 542.266 282.723 542.513 282.701 542.541 282.681 542.568 282.663 542.596 282.396 542.995 282.396 543.51 282.663 543.909L288.138 552.122C289.602 554.317 292.052 555.627 294.689 555.627L299.067 555.627C300.819 555.627 302.465 554.944 303.702 553.706 304.941 552.468 305.624 550.822 305.624 549.07L305.624 538.75C305.624 538.129 305.12 537.625 304.499 537.625 303.878 537.625 303.374 538.129 303.374 538.75L303.374 540.995C303.374 541.617 302.87 542.12 302.249 542.12 301.628 542.12 301.124 541.617 301.124 540.995L301.124 537.625C301.124 537.004 300.62 536.5 299.999 536.5 299.378 536.5 298.874 537.004 298.874 537.625L298.874 540.995C298.874 541.617 298.37 542.12 297.749 542.12 297.128 542.12 296.624 541.617 296.624 540.995L296.624 537.625C296.624 537.004 296.12 536.5 295.499 536.5 294.878 536.5 294.374 537.004 294.374 537.625L294.374 540.995C294.374 541.617 293.87 542.12 293.249 542.12 292.628 542.12 292.124 541.617 292.124 540.995L292.124 527.5C292.124 526.879 291.62 526.375 290.999 526.375 290.378 526.375 289.872 526.879 289.872 527.5L289.872 544.375C289.872 544.804 289.621 545.203 289.234 545.389 289.083 545.461 288.914 545.5 288.747 545.5 288.492 545.5 288.243 545.413 288.045 545.254L284.387 542.329C284.173 542.158 283.918 542.07 283.65 542.07Z"></path></g></g></g><g><g><g><path d="M157.031 554.632C156.429 554.632 155.865 554.399 155.442 553.978L150.667 549.202 146.292 553.578C146.082 553.789 145.835 553.954 145.557 554.068 145.284 554.18 144.996 554.237 144.702 554.237 143.787 554.237 142.969 553.69 142.62 552.846L133.154 529.854C132.927 529.302 132.927 528.693 133.154 528.141 133.501 527.294 134.319 526.747 135.236 526.747 135.529 526.747 135.818 526.804 136.09 526.917L159.079 536.383C159.355 536.497 159.602 536.661 159.813 536.872 160.238 537.298 160.471 537.862 160.471 538.465 160.471 539.067 160.238 539.632 159.813 540.057L155.438 544.432 160.21 549.205C161.088 550.083 161.088 551.51 160.21 552.388L158.62 553.979C158.196 554.399 157.632 554.632 157.031 554.632ZM150.667 546.485C150.967 546.485 151.251 546.602 151.462 546.815L157.031 552.385 158.62 550.794 153.053 545.224C152.842 545.014 152.723 544.724 152.723 544.429 152.723 544.133 152.842 543.843 153.053 543.634L158.223 538.464 135.234 528.997 144.701 551.987 149.871 546.815C150.081 546.606 150.37 546.485 150.667 546.485Z"></path></g></g></g><g clip-path="url(#clip30)"><g clip-path="url(#clip31)"><g clip-path="url(#clip32)"><path d="M443.25 545.745C439.529 545.745 436.5 542.717 436.5 538.995 436.5 535.274 439.529 532.245 443.25 532.245 446.971 532.245 450 535.274 450 538.995 450 542.717 446.971 545.745 443.25 545.745ZM443.25 534.495C440.769 534.495 438.75 536.515 438.75 538.995 438.75 541.477 440.769 543.495 443.25 543.495 445.731 543.495 447.75 541.477 447.75 538.995 447.75 536.515 445.731 534.495 443.25 534.495Z"></path><path d="M426.938 557C426.008 557 425.25 556.244 425.25 555.312 425.25 554.456 425.911 553.724 426.759 553.634 426.818 553.625 426.876 553.619 426.938 553.619 427.867 553.619 428.625 554.377 428.625 555.307 428.625 556.241 427.867 557 426.938 557Z"></path><path d="M417.375 549.12C415.513 549.12 414 547.607 414 545.745 414 543.884 415.513 542.37 417.375 542.37 419.237 542.37 420.75 543.884 420.75 545.745 420.75 547.607 419.237 549.12 417.375 549.12ZM417.375 544.62C416.754 544.62 416.25 545.125 416.25 545.745 416.25 546.367 416.754 546.87 417.375 546.87 417.996 546.87 418.5 546.367 418.5 545.745 418.5 545.125 417.996 544.62 417.375 544.62Z"></path><path d="M420.188 536.745C418.017 536.745 416.25 534.98 416.25 532.808 416.25 530.636 418.017 528.87 420.188 528.87 422.358 528.87 424.125 530.638 424.125 532.808 424.125 534.979 422.358 536.745 420.188 536.745ZM420.188 531.12C419.258 531.12 418.5 531.878 418.5 532.808 418.5 533.738 419.258 534.495 420.188 534.495 421.117 534.495 421.875 533.74 421.875 532.808 421.875 531.877 421.117 531.12 420.188 531.12Z"></path><path d="M432.562 531.12C429.771 531.12 427.5 528.849 427.5 526.058 427.5 523.266 429.771 520.995 432.562 520.995 435.354 520.995 437.625 523.266 437.625 526.058 437.625 528.849 435.354 531.12 432.562 531.12ZM432.562 523.245C431.012 523.245 429.75 524.507 429.75 526.058 429.75 527.609 431.012 528.87 432.562 528.87 434.113 528.87 435.375 527.609 435.375 526.058 435.375 524.507 434.113 523.245 432.562 523.245Z"></path></g></g></g></g></svg>