<svg width="1280" height="720" xmlns="http://www.w3.org/2000/svg" xmlns:xlink="http://www.w3.org/1999/xlink" overflow="hidden"><defs><clipPath id="clip0"><rect x="0" y="0" width="1280" height="720"></rect></clipPath></defs><g clip-path="url(#clip0)"><rect x="0" y="0" width="1280" height="720" fill="#FFFFFF"></rect><path d="M0 0 1282 0 1282 720 0 720Z" fill="#EE7628" fill-rule="evenodd"></path><path d="M458.591 246 701.751 246C725.304 246 744.342 265.076 744.342 288.602L744.342 341.199C744.342 364.723 763.441 383.799 786.994 383.799L829.768 383.799C848.684 383.799 864 399.097 864 417.991L864 439.809C864 458.703 848.684 474 829.768 474L778.635 474C759.719 474 744.403 458.703 744.403 439.809L744.403 426.34C744.403 402.815 725.304 383.799 701.812 383.799L458.591 383.799C435.038 383.799 416 364.723 416 341.199L416 288.602C416 265.076 435.099 246 458.591 246Z" fill="#070809" fill-rule="evenodd"></path><path d="M663.068 284 697.24 284C701.787 284 704 286.299 704 290.653 704 295.009 701.787 297.368 697.24 297.368L670.135 297.368 670.135 310.373 687.099 310.373C691.647 310.373 693.859 312.672 693.859 317.087 693.859 321.503 691.647 323.74 687.099 323.74L670.135 323.74 670.135 323.862 670.135 338.983C670.135 343.641 667.739 346 663.068 346 658.397 346 656 343.641 656 338.983L656 291.017C656 286.359 658.458 284 663.068 284Z" fill="#FFFFFF" fill-rule="evenodd"></path><path d="M605.087 297.693 605.087 314.272 616.937 314.272C622.318 314.272 626.55 311.815 626.55 306.044 626.55 300.272 622.318 297.693 616.937 297.693ZM598.013 284 618.146 284C631.629 284 641 292.965 641 305.921 641 313.842 637.433 319.859 631.387 323.114L637.856 336.316C638.521 337.605 638.763 338.895 638.763 340.123 638.763 344.236 634.107 346.877 630.661 346.877 628.061 346.877 626.187 345.342 624.917 342.333L617.965 327.167 617.904 327.228 605.087 327.228 605.087 339.877C605.087 344.605 602.669 347 598.013 347 593.358 347 591 344.605 591 339.877L591 291.123C591 286.395 593.418 284 598.013 284Z" fill="#FFFFFF" fill-rule="evenodd"></path><path d="M525.053 284C529.674 284 532.167 286.367 532.167 290.98L532.167 317.867C532.167 327.396 538.004 333.101 545.97 333.101 553.935 333.101 559.894 327.396 559.894 317.867L559.894 290.98 559.833 290.98C559.833 286.307 562.265 284 566.886 284 571.507 284 574 286.367 574 290.98L574 317.867C574 335.589 562.144 347 545.97 347 529.796 347 518 335.589 518 317.867L518 290.98C518 286.307 520.432 284 525.053 284Z" fill="#FFFFFF" fill-rule="evenodd"></path><path d="M479.651 284C489.957 284 502.071 287.614 502.071 294.289 502.071 298.393 500.022 300.965 496.285 300.965 494.357 300.965 492.669 300.291 490.68 299.679 487.847 298.576 484.352 297.352 479.59 297.352 475.673 297.352 470.851 298.883 470.851 302.067 470.851 304.884 473.021 306.171 477.843 307.64L489.234 311.192C496.949 313.581 504 318.297 504 329.076 504 340.59 493.392 348 479.771 348 468.38 348 455 344.387 455 337.711 455 333.608 457.351 331.036 461.388 331.036 463.498 331.036 465.427 331.587 467.657 332.322 470.731 333.363 474.347 334.649 479.832 334.649 484.472 334.649 489.716 332.505 489.716 328.647L489.656 328.647C489.656 325.462 485.678 324.115 480.615 322.522L470.429 319.399C463.076 317.195 456.567 311.927 456.567 302.679 456.567 291.594 466.391 284 479.651 284Z" fill="#FFFFFF" fill-rule="evenodd"></path><text fill="#FFFFFF" font-family="Calibri,Calibri_MSFontService,sans-serif" font-weight="700" font-size="64" transform="translate(109.538 336)">Icons</text><text fill="#FFFFFF" font-family="Calibri,Calibri_MSFontService,sans-serif" font-weight="700" font-size="64" transform="translate(261.725 336)">for</text><text fill="#FFFFFF" font-family="Calibri,Calibri_MSFontService,sans-serif" font-weight="700" font-size="21.3333" transform="translate(168.842 668)">Licended</text><text fill="#FFFFFF" font-family="Calibri,Calibri_MSFontService,sans-serif" font-weight="700" font-size="21.3333" transform="translate(252.676 668)">set.</text><text fill="#FFFFFF" font-family="Calibri,Calibri_MSFontService,sans-serif" font-weight="700" font-size="21.3333" transform="translate(289.529 668)">Only</text><text fill="#FFFFFF" font-family="Calibri,Calibri_MSFontService,sans-serif" font-weight="700" font-size="21.3333" transform="translate(335.696 668)">to</text><text fill="#FFFFFF" font-family="Calibri,Calibri_MSFontService,sans-serif" font-weight="700" font-size="21.3333" transform="translate(359.156 668)">be</text><text fill="#FFFFFF" font-family="Calibri,Calibri_MSFontService,sans-serif" font-weight="700" font-size="21.3333" transform="translate(386.156 668)">used</text><text fill="#FFFFFF" font-family="Calibri,Calibri_MSFontService,sans-serif" font-weight="700" font-size="21.3333" transform="translate(433.156 668)">for</text><text fill="#FFFFFF" font-family="Calibri,Calibri_MSFontService,sans-serif" font-weight="700" font-size="21.3333" transform="translate(463.669 668)">SURF</text><text fill="#FFFFFF" font-family="Calibri,Calibri_MSFontService,sans-serif" font-weight="700" font-size="21.3333" transform="translate(514.502 668)">communication</text><text fill="#FFFFFF" font-family="Calibri,Calibri_MSFontService,sans-serif" font-weight="700" font-size="21.3333" transform="translate(652.402 668)">. It’s</text><text fill="#FFFFFF" font-family="Calibri,Calibri_MSFontService,sans-serif" font-weight="700" font-size="21.3333" transform="translate(694.109 668)">prohibbited</text><text fill="#FFFFFF" font-family="Calibri,Calibri_MSFontService,sans-serif" font-weight="700" font-size="21.3333" transform="translate(803.422 668)">to</text><text fill="#FFFFFF" font-family="Calibri,Calibri_MSFontService,sans-serif" font-weight="700" font-size="21.3333" transform="translate(826.882 668)">use</text><text fill="#FFFFFF" font-family="Calibri,Calibri_MSFontService,sans-serif" font-weight="700" font-size="21.3333" transform="translate(862.382 668)">these</text><text fill="#FFFFFF" font-family="Calibri,Calibri_MSFontService,sans-serif" font-weight="700" font-size="21.3333" transform="translate(915.882 668)">icons</text><text fill="#FFFFFF" font-family="Calibri,Calibri_MSFontService,sans-serif" font-weight="700" font-size="21.3333" transform="translate(966.276 668)">in</text><text fill="#FFFFFF" font-family="Calibri,Calibri_MSFontService,sans-serif" font-weight="700" font-size="21.3333" transform="translate(987.776 668)">any</text><text fill="#FFFFFF" font-family="Calibri,Calibri_MSFontService,sans-serif" font-weight="700" font-size="21.3333" transform="translate(1024.39 668)">other</text><text fill="#FFFFFF" font-family="Calibri,Calibri_MSFontService,sans-serif" font-weight="700" font-size="21.3333" transform="translate(1077.89 668)">form of</text><text fill="#FFFFFF" font-family="Calibri,Calibri_MSFontService,sans-serif" font-weight="700" font-size="21.3333" transform="translate(433.502 691)">communication</text><text fill="#FFFFFF" font-family="Calibri,Calibri_MSFontService,sans-serif" font-weight="700" font-size="21.3333" transform="translate(576.236 691)">with</text><text fill="#FFFFFF" font-family="Calibri,Calibri_MSFontService,sans-serif" font-weight="700" font-size="21.3333" transform="translate(620.902 691)">a different</text><text fill="#FFFFFF" font-family="Calibri,Calibri_MSFontService,sans-serif" font-weight="700" font-size="21.3333" transform="translate(718.422 691)">sender</text><text fill="#FFFFFF" font-family="Calibri,Calibri_MSFontService,sans-serif" font-weight="700" font-size="21.3333" transform="translate(783.756 691)">than</text><text fill="#FFFFFF" font-family="Calibri,Calibri_MSFontService,sans-serif" font-weight="700" font-size="21.3333" transform="translate(829.422 691)">SURF.</text></g></svg>